<svg id="fi_4128233" enable-background="new 0 0 512 512" height="512" viewBox="0 0 512 512" width="512" xmlns="http://www.w3.org/2000/svg"><g><g><g><g><g><g id="XMLID_504_"><g id="XMLID_505_"><g id="XMLID_506_"><g id="XMLID_507_"><g id="XMLID_508_"><g id="XMLID_509_"><g id="XMLID_510_"><g id="XMLID_511_"><g id="XMLID_512_"><g id="XMLID_513_"><g id="XMLID_514_"><g id="XMLID_515_"><g id="XMLID_516_"><g id="XMLID_517_"><g><path d="m512 256c0 58.44-19.59 112.31-52.55 155.4-28.06 36.69-65.83 40.96-109.46 38.51-29.1-1.63-60.81-6.25-93.99-6.25-82.94 0-156.67 28.89-203.45-32.26-32.96-43.09-52.55-96.96-52.55-155.4 0-141.38 114.62-256 256-256 139.98 0 253.73 112.36 255.96 251.81.03 1.39.04 2.79.04 4.19z" fill="#fbe280"></path></g></g></g></g></g></g></g></g></g></g></g></g></g></g></g></g></g></g></g><path d="m512 256c0 58.44-19.59 112.31-52.55 155.4-28.06 36.69-65.83 40.96-109.46 38.51l-83.9-129.01-104.32-104.31 174.97-140 175.22 175.22c.03 1.39.04 2.79.04 4.19z" fill="#efc859"></path><path d="m199.97 250.232h112.06v118.84h-112.06z" fill="#eaa678"></path><path d="m256 250.236h56.03v118.84h-56.03z" fill="#d38c5b"></path><path d="m199.97 324.824h112.06v118.84h-112.06z" fill="#ffc397"></path><path d="m256 324.824h56.03v118.84h-56.03z" fill="#eaa678"></path><path d="m344.251 152.225c-3.728-56.6-49.511-77.517-88.251-77.517s-84.523 20.917-88.251 77.517c-10.018 1.938-17.134 15.077-16.014 25.701l1.717 24.177c1.175 11.157 10.982 19.301 21.79 18.089l1.864-.202c22.138 59.446 56.857 65.644 78.894 69.124 22.038-3.48 56.756-9.678 78.894-69.124l1.864.202c10.807 1.212 20.614-6.932 21.79-18.089l1.717-24.177c1.12-10.624-5.996-23.763-16.014-25.701z" fill="#ffc397"></path><path d="m360.265 177.926-1.717 24.177c-1.175 11.157-10.982 19.301-21.79 18.089l-1.864-.202c-7.566 20.293-16.592 34.388-26.078 44.277-18.291 19.081-38.299 22.552-52.817 24.847v-214.406c38.74 0 84.523 20.917 88.251 77.517 10.019 1.938 17.135 15.077 16.015 25.701z" fill="#eaa678"></path><path d="m256 49.064c-64.729 0-112.668 20.849-90.052 129.627l16.527 19.036 15.824-65.67c37.63 11.824 77.77 11.824 115.4 0l15.824 65.67 16.527-19.036c22.618-108.777-25.321-129.627-90.05-129.627z" fill="#515151"></path><path d="m346.05 178.69-16.53 19.04-15.82-65.67c-18.82 5.91-38.26 8.86-57.7 8.86v-91.86c64.73 0 112.67 20.85 90.05 129.63z" fill="#3d3d3d"></path><path d="m459.45 388.02v23.38c-10.66 13.93-23.03 10.85-36.27 22.31-11.36 9.84-23.28 34.57-36.26 42.31-5.256 3.133-10.632-7.059-16.125-4.299-5.273 2.65-10.654 18.267-16.125 20.549-30.36 12.71-63.7 19.73-98.67 19.73s-68.31-7.02-98.67-19.73c-5.473-2.283-10.85-13.599-16.125-16.25-5.492-2.759-10.871 3.132-16.125 0-11.65-6.94-23.03-23.71-33.39-32.36-14.63-12.21-27.55-17.11-39.14-32.26v-23.38c0-34.9 28.3-63.2 63.2-63.2h84.22s10.58 51.91 56.03 59.42c45.45-7.51 56.03-59.42 56.03-59.42h84.22c34.9 0 63.2 28.3 63.2 63.2z" fill="#5bbc96"></path><path d="m459.45 388.02v23.38c-10.66 13.93-23.03 10.85-36.27 22.31-11.36 9.84-23.28 34.57-36.26 42.31-5.26 3.13-10.63-7.06-16.12-4.3-5.28 2.65-10.66 18.27-16.13 20.55-30.36 12.71-63.7 19.73-98.67 19.73v-127.76c45.45-7.51 56.03-59.42 56.03-59.42h84.22c34.9 0 63.2 28.3 63.2 63.2z" fill="#399e73"></path><path d="m125.08 399.2v76.82c-28.11-16.75-52.73-38.74-72.53-64.62v-12.2z" fill="#ffc397"></path><path d="m459.45 399.2v12.2c-19.8 25.88-44.42 47.87-72.53 64.62v-76.82z" fill="#eaa678"></path><path d="m125.08 399.2h32.25v93.07c-11.17-4.66-21.95-10.11-32.25-16.25" fill="#399e73"></path><path d="m354.67 399.2h32.25v76.82c-10.3 6.14-21.08 11.59-32.25 16.25" fill="#258258"></path></g></svg>