<?xml version="1.0" encoding="iso-8859-1" ?>
<svg version="1.1" xmlns="http://www.w3.org/2000/svg" xmlns:xlink="http://www.w3.org/1999/xlink" 
    viewBox="0 0 1500 1500" width="1500" height="1500">
    
    
    <!-- ITEM 0 -->
    <g>
        <defs>
            <clipPath id="clip-path-id-viewbox-item-0">
                <rect x="0.0" y="0.0" width="652.0" height="600.6"/>
            </clipPath>
        </defs>
        <g transform="translate(48.0 119.0) rotate(0.0 698.5 642.5) scale(2.142638036809816 2.1395271395271394)">
            <g clip-path="url(#clip-path-id-viewbox-item-0)" transform="translate(-0.0 -0.0)">
                

<path d="M348.3,19.2C534.8-54,686.8,93.6,645,261.4c-38,152.8,56.1,198.5-94.6,301.2c-133.4,90.9-388.7,6-499.8-120.4  C-101.1,269.6,114.4,111,348.3,19.2z" style="fill:#1dcba0;"></path>

            </g>
        </g>
    </g>
    
    <!-- ITEM 1 -->
    <g>
        <defs>
            <clipPath id="clip-path-id-viewbox-item-1">
                <rect x="0.0" y="0.0" width="725.286" height="96.323"/>
            </clipPath>
        </defs>
        <g transform="translate(102.0 790.0) rotate(0.0 635.5 83.5) scale(1.752412151895942 1.7337499870228295)">
            <g clip-path="url(#clip-path-id-viewbox-item-1)" transform="translate(-0.0 -0.0)">
                <g id="f29d054c-aff2-4096-93fc-5892af0a5ade-i1" data-name="Layer 2"><g id="b8fd91bd-42f7-43c1-bbc8-54f4ebbccc59-i1" data-name="progress_loading_bar_3"><path d="M5.98,1.248,2.108,5.335l-.645,84.75,5.721,4.948H717.929a6.105,6.105,0,0,0,6.109-6.109V7.314a6.1,6.1,0,0,0-6.109-6.109H5.98Z" fill="#fff"></path><path d="M716.768,96.323H8.518A8.537,8.537,0,0,1,0,87.805V8.518A8.538,8.538,0,0,1,8.518,0h708.25a8.538,8.538,0,0,1,8.518,8.518V87.805A8.537,8.537,0,0,1,716.768,96.323ZM8.518,2.538A5.95,5.95,0,0,0,2.581,8.475V87.762A5.949,5.949,0,0,0,8.518,93.7h708.25a5.949,5.949,0,0,0,5.937-5.937V8.475a5.95,5.95,0,0,0-5.937-5.937Z" fill="#1a1a1a"></path><path d="M241.518,28.437a3.251,3.251,0,0,1,3.227-3.227h16.563l8.217-16.391H13.422a4.315,4.315,0,0,0-4.3,4.3v70.6a4.315,4.315,0,0,0,4.3,4.3H229.946l8.475-16.95h-28.91a2.366,2.366,0,1,1,0-4.732h31.276L247.455,53h-5.249a1.936,1.936,0,0,1,0-3.872h7.185l8.733-17.424H244.788A3.324,3.324,0,0,1,241.518,28.437Z" fill="#1a1a1a"></path></g></g>
            </g>
        </g>
    </g>
    
    <!-- ITEM 2 -->
    <g>
        <defs>
            <clipPath id="clip-path-id-viewbox-item-2">
                <rect x="0.0" y="0.0" width="136.3" height="28.8"/>
            </clipPath>
        </defs>
        <g transform="translate(432.0 730.0) rotate(0.0 148.0 30.5) scale(2.171680117388114 2.1180555555555554)">
            <g clip-path="url(#clip-path-id-viewbox-item-2)" transform="translate(-0.0 -0.0)">
                

<g>
	<g>
		<path d="M135.2,28.8L135.2,28.8L1,28.6c-0.4,0-0.8-0.2-0.9-0.6c-0.2-0.4-0.1-0.8,0.2-1.1c0.2-0.3,6.4-7.1,13.7-8.1    c3.3-0.5,5.8,0,8.1,0.5c2.6,0.5,4.6,0.9,7-0.4c0.9-0.5,1.9-1.2,3-1.9c4.9-3.2,11.5-7.6,20.3-3.5c6,2.7,8.7,5.4,10.4,7.2    c1.3,1.3,1.8,1.8,2.7,1.8c0.9,0,3.5-1.8,5.9-3.4c4.8-3.4,10.8-7.5,15.7-7c3.7,0.4,6.1,1.8,8.1,3.1c2.3,1.4,4.2,2.6,7.8,2.3    c1.1-0.1,2-0.2,2.8-0.3c5.1-0.6,8-0.9,13.6,2.1c2.2,1.2,4.3,1.7,6.3,2.2c3.5,0.9,6.9,1.7,10.2,5.8c0.2,0.3,0.3,0.7,0.1,1.1    C136,28.6,135.6,28.8,135.2,28.8z" style="fill:#1A1A1A;"></path>
	</g>
	<g>
		<g>
			<ellipse cx="24.2" cy="8.8" rx="4" ry="4" style="fill:#1A1A1A;"></ellipse>
		</g>
		<g>
			<ellipse cx="99.3" cy="6.7" rx="2.1" ry="2.1" style="fill:#1A1A1A;"></ellipse>
		</g>
		<g>
			<ellipse cx="46.5" cy="4" rx="2.9" ry="2.9" style="fill:#1A1A1A;"></ellipse>
		</g>
		<g>
			<path d="M86.5,10.3c-0.9,0-1.9-0.5-2.5-1.3c-0.9-1.3-0.6-3.2,0.8-4.1l6.6-4.4c1.3-0.9,3.2-0.6,4.1,0.8     c0.9,1.3,0.6,3.2-0.8,4.1l-6.6,4.4C87.6,10.1,87,10.3,86.5,10.3z" style="fill:#1A1A1A;"></path>
		</g>
	</g>
</g>

            </g>
        </g>
    </g>
    
    <!-- ITEM 3 -->
    <g>
        <defs>
            <clipPath id="clip-path-id-viewbox-item-3">
                <rect x="0.0" y="0.0" width="371.635" height="246.55"/>
            </clipPath>
        </defs>
        <g transform="translate(758.0 365.0) rotate(0.0 322.5 214.0) scale(1.7355738829765766 1.7359561954978706)">
            <g clip-path="url(#clip-path-id-viewbox-item-3)" transform="translate(-0.0 -0.0)">
                <title>bull</title><g id="Layer_2-i3" data-name="Layer 2"><g id="bull-i3"><path d="M98.233,106.3a5.848,5.848,0,0,0-7.141-4.173h0c-.731.215-1.334.387-2.022.559l-1.936.559c-1.291.387-2.581.774-3.829,1.2-2.538.817-5.076,1.677-7.571,2.581-5.034,1.807-10.024,3.7-14.929,5.808a177.491,177.491,0,0,0-28.393,15.014,98.388,98.388,0,0,0-12.734,10.067A53.341,53.341,0,0,0,9.439,150.829a42.335,42.335,0,0,0-3.184,7.658,46.648,46.648,0,0,0-1.721,8,56.714,56.714,0,0,0-.473,8.088c0,1.334.086,2.668.215,4.044a33.5,33.5,0,0,0,.43,3.485,6.753,6.753,0,0,0-3.1,1.936,6.338,6.338,0,0,0-1.592,4.646c.172,3.141,3.055,10.282,6.884,10.282h.172c1.806-.129,3.355-1.721,4.517-4.689a17.023,17.023,0,0,0,1.247-6.41,6.336,6.336,0,0,0-2.151-4.431,6.2,6.2,0,0,0-3.355-1.549c-.086-1.119-.129-2.28-.172-3.442,0-1.29.043-2.538.129-3.829a55.582,55.582,0,0,1,1.032-7.528,46.062,46.062,0,0,1,2.151-7.185,39.472,39.472,0,0,1,3.356-6.582,44.743,44.743,0,0,1,4.56-5.765,55.719,55.719,0,0,1,5.464-5.076,92.418,92.418,0,0,1,12.476-8.518A165.7,165.7,0,0,1,64.29,121.618c4.862-1.678,9.766-3.184,14.67-4.56,2.452-.689,4.948-1.334,7.443-1.936,1.247-.3,2.495-.6,3.743-.861l1.849-.43c.6-.129,1.248-.258,1.807-.387.129-.043.258-.043.431-.086A5.731,5.731,0,0,0,98.233,106.3Z" style="fill:#1a1a1a"></path><path d="M368.188,58.765c-4.173-2.151-49.6-25.382-49.6-25.382S292.9,19.057,284.3,19.616s-13.9,7.615-8.174,14.928,11.745,6.582,11.745,6.582L264.336,48.01,223.6,61.217,144.137,86.6,85.628,104.668s-8.6,7.1-12.045,15.917-35.708,69.694-35.708,69.694L11.2,245.345l21.94-.43s-1.721-7.313.646-13.336,15.7-21.08,15.7-21.08a10.038,10.038,0,0,0,13.121-3.227c5.593-7.529-.43-10.325-.43-10.325l17.424-11.831,9.894-1.935s12.261,5.592,54.637,6.238,78.727-11.186,78.727-11.186l5.679-1.807s3.356,20.521-.516,30.2-2.581,17.853-16.778,38.288h18.8l1.29-10.454L253.022,194.5s6.883,1.161,10.11-6.582-1.549-9.293-1.549-9.293l5.851-11.357,31.921-2.5-17.724,31.1L272.9,212.951l-7.958,9.765,15.358,8.906,3.141-11.745s11.4-21.639,16.218-26.673,24.221-23.317,24.952-33.857-6.668-21.6-32.007-40.568c0,0,9.723-24.823,12.3-34.933L316.09,80.4,360.4,75.026s9.164-1.677,10.325-9.679A6.665,6.665,0,0,0,368.188,58.765Z" style="fill:#fff"></path><path d="M299.656,193.118c4.819-5.033,24.221-23.317,24.952-33.857s-6.668-21.6-32.007-40.568c0,0,1.248-3.227,3.011-7.83l-.387-.172-7.744,15.487S305.12,136.5,312,145.107s7.744,18.069-2.581,28.394-21.51,29.254-27.963,44.311l2.323,1.42C285.632,215.661,295.311,197.635,299.656,193.118Z" style="fill:#1dcba0"></path><path d="M169.562,141.192a45.369,45.369,0,0,0-45.387,45.387v1.033l.817,1.032s2.022-.559,6.2.3c4,.172,8.3.3,13.036.388,30.157.473,57.26-5.378,70.381-8.82A45.456,45.456,0,0,0,169.562,141.192Z" style="fill:#1dcba0"></path><path d="M284.3,19.616c-8.6.559-13.9,7.615-8.174,14.928s11.745,6.582,11.745,6.582L264.336,48.01,223.6,61.217,144.137,86.6,85.628,104.668s-8.6,7.1-12.045,15.917c0,0,4.861-7.442,31.835-15.186S298.452,44.31,298.452,44.31l-9.164-14.627,77.739,28.7-.043-.173c-8.26-4.259-48.442-24.779-48.442-24.779S292.9,19.014,284.3,19.616Z" style="fill:#1dcba0"></path><path d="M324.436,46.848a18.312,18.312,0,0,0-6.668-.516c-3.1.43-3.915,1.936-4.13,2.753-.774,3.055,3.7,5.894,8.475,7.1a19.87,19.87,0,0,0,4.861.646,12.916,12.916,0,0,0,1.85-.129c3.1-.43,3.915-1.936,4.13-2.754C333.729,50.892,329.254,48.053,324.436,46.848Zm-8.3,2.882c.043-.129.473-.6,1.979-.817.43-.043.947-.086,1.463-.086a16.748,16.748,0,0,1,4.216.559c.043,0,.129.043.172.043-1.463.258-2.452.861-2.667,1.721-.215.774.258,1.635,1.2,2.5C318.026,52.441,315.961,50.333,316.133,49.73Z" style="fill:#1a1a1a"></path><circle cx="205.484" cy="119.037" r="13.982" style="fill:#1dcba0"></circle><circle cx="179.887" cy="114.95" r="7.227" style="fill:#1dcba0"></circle><path d="M367.715,57.216c-4.861-3.054-32.653-16.735-51.5-25.941,1.549-2.926,7.142-7.658,13.81-11.616,9.594-5.722,10.583-17.9,10.626-18.413a1.228,1.228,0,0,0-.688-1.161,1.11,1.11,0,0,0-1.291.3c-4.3,4.861-12.175,8.389-19.187,11.486-2.108.947-4.087,1.807-5.894,2.71a25.976,25.976,0,0,0-11.056,10.067c-2.108-1.032-3.485-1.677-3.872-1.893a37.865,37.865,0,0,0-10.841-3.914c-4.475-.818-8.217-.431-10.842,1.161-3.1,1.893-4.56,5.292-4.431,10.067.172,5.851,4.13,9.508,9.121,11.745l-190.8,59.626A26.734,26.734,0,0,0,75,114.95L10.127,244.7a1.286,1.286,0,0,0,.043,1.248,1.226,1.226,0,0,0,1.076.6h.043l21.94-.43a1.231,1.231,0,0,0,1.248-1.291l-.129-10.153a49.555,49.555,0,0,1,15.616-22.93,11.021,11.021,0,0,0,2.065.861,10.125,10.125,0,0,0,2.969.43,10.608,10.608,0,0,0,10.2-7.658,10.745,10.745,0,0,0-.861-8h.043a59.829,59.829,0,0,1,8.174-6.41l1.033,2.237a14.326,14.326,0,0,1-1.377,14.455L51.513,235.924a1.254,1.254,0,0,0,1.032,2.022h18.93a1.317,1.317,0,0,0,1.2-.817l4.216-11.1c1.936-2.108,18.2-19.832,23.145-26.156,4.087-5.206,3.571-9.809,2.969-12.046a294.249,294.249,0,0,0,43.365,3.1c4.646,0,9.464-.086,14.541-.3,5.334-.215,10.368-.6,15.1-1.075h.129c1.032-.086,2.065-.172,3.054-.3,1.291-.129,2.969-.344,4.948-.645,24.78-3.269,40.1-9.034,43.967-10.669a84.652,84.652,0,0,1,.817,13.509c-.258,15.917-7.184,32.007-12.519,42.117a1.078,1.078,0,0,0-.172.3,99.194,99.194,0,0,1-6.023,10.153c-.043.043-.043.129-.086.172s-.043.086-.086.129a.158.158,0,0,1-.043.129c0,.086-.043.129-.043.215v.387c0,.043.043.043.043.086.043.086.043.172.086.259.043.043.043.086.086.172h0c.043.043.086.086.086.129l.043.043.086.086c.043,0,.043.043.086.043s.043.043.086.043c.043.043.086.043.129.086h0c.044.043.087.043.173.043h0c.043,0,.086.043.172.043h19.015a1.3,1.3,0,0,0,1.29-1.119l1.248-10.239,1.506-2.753c4.818-8.905,12.132-22.285,19.789-36.525h.517a10.649,10.649,0,0,0,10.626-10.626,10.768,10.768,0,0,0-2.065-6.281q2.064-3.871,4-7.485H267c12.82-1.291,24.607-3.528,29.813-4.6l-24.694,45.043-8.26,10.239a1.3,1.3,0,0,0-.258,1.033,1.281,1.281,0,0,0,.6.86l15.359,8.905a1.213,1.213,0,0,0,.645.172,1.546,1.546,0,0,0,.473-.086,1.4,1.4,0,0,0,.775-.86l3.14-11.659c.43-.989,4.947-10.712,16.047-26.371a102.406,102.406,0,0,1,9.895-11.186c6.969-7.141,14.153-14.541,15.272-23.231,2.194-17.079-26.673-37.772-31.835-41.3,8.044-18.714,10.8-31.362,11.443-34.847,4.646-.645,25.985-3.527,50.2-5.893,8.475-.818,14.369-4.776,15.7-10.54A8.526,8.526,0,0,0,367.715,57.216ZM13.354,243.969l4.087-8.131H31.81l.129,7.787Zm215.576-.387h-8.776l2.624-7.873h7.1ZM279.48,229.6l-3.184-1.85,3.743-8.647,1.936,1.247Zm43.838-70.468c-1.033,7.873-7.916,14.928-14.584,21.768a100.077,100.077,0,0,0-10.153,11.487c-9.465,13.336-14.111,22.242-15.7,25.511l-8.26-5.377,25.856-47.151c.043-.043.043-.129.086-.172v-.043c0-.043.043-.086.043-.172v-.344a.393.393,0,0,0-.043-.216v-.043c0-.086-.043-.129-.043-.215,0-.043,0-.043-.043-.086,0-.043-.043-.086-.043-.129s-.043-.043-.043-.086a.042.042,0,0,0-.043-.043l-.043-.043-.043-.043-.129-.129a.042.042,0,0,1-.043-.043c-.043-.043-.13-.086-.173-.129a.042.042,0,0,1-.043-.043.158.158,0,0,0-.129-.043h-.086c-.043,0-.086-.043-.172-.043h-.043c-4.99-.516-8.776-2.538-11.185-6.023-5.722-8.26-2.237-22.2-2.194-22.328a1.764,1.764,0,0,0,.043-.473c3.14-6.152,5.377-10.841,6.8-13.982,0-.043.043-.086.043-.129C298.8,124.629,325.254,144.075,323.318,159.132Zm31.921-84.278c-27.232,2.668-50.807,5.98-51.023,6.023a1.278,1.278,0,0,0-1.075,1.076c-.043.129-2.409,14.885-12.519,37.686-3.7,8.26-13.6,27.49-29.426,57.088a11.579,11.579,0,0,0-3.1-1.763,1.279,1.279,0,0,0-.86,2.409,8.043,8.043,0,0,1-2.71,15.616,7.922,7.922,0,0,1-4.6-1.462,1.3,1.3,0,0,0-1.5,2.108,9.477,9.477,0,0,0,2.882,1.419c-7.529,13.939-14.627,27.017-19.4,35.75l-1.248,2.28h-10.8l-.129-.043c5.291-10.367,11.572-25.855,11.831-41.514.172-11.272-1.635-19.016-3.184-25.856-1.678-7.313-3.183-13.853-1.807-23.016.861-4.3,1.936-8.389,1.936-8.475a.259.259,0,0,1,.043-.172v-.387a.259.259,0,0,0-.043-.172c0-.043,0-.043-.043-.086,0-.043-.043-.086-.043-.129s-.043-.044-.043-.087c-.043-.043-.043-.086-.086-.129,0-.043-.043-.043-.086-.086l-.086-.086-.086-.086c-.043-.043-.086-.043-.129-.086-.043,0-.043-.043-.086-.043h-.043c-.043,0-.086-.043-.129-.043s-.043,0-.043-.043h0a.545.545,0,0,0-.258-.043h-.3a.161.161,0,0,0-.13.043c-.043,0-.043,0-.086.043-.043,0-.086.043-.129.043s-.043.043-.086.043c-.043.043-.086.043-.129.086-.043,0-.043.043-.086.043-.043.043-.086.043-.086.086l-.086.086-.043.043c-.215.258-4.861,6.884-7.744,19.833-3.183,14.412-15.1,30.416-39.019,33.685-5.765.645-11.96,1.162-18.628,1.463-35.105,1.549-60.1-2.883-69.608-4.948l-1.678-.43c.99-.387,2.022-.774,3.012-1.161,6.5-2.5,12.648-4.819,18.026-8.777a38.837,38.837,0,0,0,15.788-26.07,42.831,42.831,0,0,0-.215-14.412,1.283,1.283,0,0,0-2.5.6c.043.215,5.162,23.447-14.541,37.815-5.077,3.7-11.1,6.023-17.424,8.432-8.991,3.442-19.144,7.314-28.737,16.176a10.757,10.757,0,0,0-1.635-1.462,1.3,1.3,0,0,0-1.506,2.108,8.036,8.036,0,0,1-6.926,14.239,7.961,7.961,0,0,1-4-2.667,1.287,1.287,0,1,0-2.022,1.592A13.745,13.745,0,0,0,47.9,210.2a52.224,52.224,0,0,0-15.7,23.017H18.817l58.552-117.1a24.226,24.226,0,0,1,14.369-12.218L285.46,43.32c.086-.043.172-.043.258-.086.731.215,1.419.387,2.151.559a49.811,49.811,0,0,0,12.476,1.592c1.032,0,1.635-.043,1.764-.043h.086a.259.259,0,0,0,.172-.043c.043,0,.086,0,.086-.043.043,0,.086-.043.172-.043.043,0,.043-.043.086-.043.043-.043.086-.043.129-.086l.086-.086.129-.129.043-.043v-.043c.043-.043.043-.086.086-.172,0-.043.043-.043.043-.086a.259.259,0,0,0,.043-.172v-.387a.549.549,0,0,0-.043-.259h0c-.129-.516-3.183-12.562-16.262-15.874a18.67,18.67,0,0,0-11.744.43c.215-2.925,1.29-4.99,3.183-6.152,4.474-2.753,13.078-.473,19.144,2.8a.042.042,0,0,1,.043.043c.517.259,46.162,22.328,63.2,31.233A18.486,18.486,0,0,0,355.239,74.854Z" style="fill:#1a1a1a"></path><path d="M73.927,226.674l-3.313,8.777h-4.9l3.657-8.82Z" style="fill:#fff"></path></g></g>
            </g>
        </g>
    </g>
    
    <!-- ITEM 4 -->
    <g>
        <defs>
            <clipPath id="clip-path-id-viewbox-item-4">
                <rect x="0.0" y="0.0" width="57.9" height="20.3"/>
            </clipPath>
        </defs>
        <g transform="translate(1188.0 727.0) rotate(0.0 62.0 21.5) scale(2.1416234887737478 2.1182266009852215)">
            <g clip-path="url(#clip-path-id-viewbox-item-4)" transform="translate(-0.0 -0.0)">
                

<g>
	<g>
		<ellipse cx="13.9" cy="2.3" rx="2.3" ry="2.3" style="fill:#1A1A1A;"></ellipse>
	</g>
	<g>
		<ellipse cx="55.7" cy="14.5" rx="2.1" ry="2.1" style="fill:#1A1A1A;"></ellipse>
	</g>
	<g>
		<ellipse transform="matrix(1.199843e-03 -1 1 1.199843e-03 -8.9252 14.6591)" cx="2.9" cy="11.8" rx="2.9" ry="2.9" style="fill:#1A1A1A;"></ellipse>
	</g>
	<g>
		<path d="M43.7,20.3c-0.8,0-1.6-0.3-2.1-0.9l-5.5-5.8c-1.1-1.2-1.1-3,0.1-4.2c1.2-1.1,3.1-1.1,4.2,0.1l5.5,5.8    c1.1,1.2,1.1,3-0.1,4.2C45.1,20.1,44.4,20.3,43.7,20.3z" style="fill:#1A1A1A;"></path>
	</g>
</g>

            </g>
        </g>
    </g>
    
    <!-- ITEM 5 -->
    <g>
        <defs>
            <clipPath id="clip-path-id-viewbox-item-5">
                <rect x="0.0" y="0.0" width="65.9" height="22.4"/>
            </clipPath>
        </defs>
        <g transform="translate(963.0 459.0) rotate(0.0 70.0 23.5) scale(2.12443095599393 2.098214285714286)">
            <g clip-path="url(#clip-path-id-viewbox-item-5)" transform="translate(-0.0 -0.0)">
                

<g>
	<path d="M1.1,22.4c-0.5,0-0.9-0.3-1-0.7c-0.2-0.6,0.1-1.2,0.7-1.3L64.5,0c0.6-0.2,1.2,0.1,1.3,0.7   C66,1.3,65.7,1.9,65.2,2L1.4,22.3C1.3,22.4,1.2,22.4,1.1,22.4z" style="fill:#FFFFFF;"></path>
</g>

            </g>
        </g>
    </g>
    
    <!-- ITEM 6 -->
    <g>
        <defs>
            <clipPath id="clip-path-id-viewbox-item-6">
                <rect x="0.0" y="0.0" width="364.2" height="122.0"/>
            </clipPath>
        </defs>
        <g transform="translate(341.0 819.0) rotate(0.0 390.0 130.5) scale(2.14168039538715 2.139344262295082)">
            <g clip-path="url(#clip-path-id-viewbox-item-6)" transform="translate(-0.0 -0.0)">
                

<g>
	<circle cx="11.4" cy="96.8" r="11.4" style="fill:#FFFFFF;"></circle>
	<g>
		<g>
			<circle cx="345.3" cy="70.2" r="17.9" style="fill:#1A1A1A;"></circle>
			<path d="M345.2,89.1c-3.3,0-6.6-0.9-9.6-2.6c-4.4-2.6-7.5-6.7-8.7-11.6c-2.6-10.1,3.5-20.5,13.6-23.1     c10.1-2.6,20.5,3.5,23.1,13.6c2.6,10.1-3.5,20.5-13.6,23.1l0,0C348.4,88.9,346.8,89.1,345.2,89.1z M345.3,53.2     c-1.4,0-2.8,0.2-4.2,0.5c-9,2.3-14.5,11.6-12.2,20.6c1.1,4.4,3.9,8.1,7.8,10.4c3.9,2.3,8.5,2.9,12.8,1.8l0,0     c9-2.3,14.5-11.6,12.2-20.6C359.7,58.3,352.8,53.2,345.3,53.2z" style="fill:#1A1A1A;"></path>
		</g>
		<g>
			<circle cx="161.7" cy="107.8" r="13.2" style="fill:#1A1A1A;"></circle>
			<path d="M161.7,122c-2.5,0-5-0.7-7.2-2c-3.3-1.9-5.6-5-6.5-8.7c-0.9-3.7-0.4-7.5,1.5-10.8c1.9-3.3,5-5.6,8.7-6.5     c3.7-0.9,7.5-0.4,10.8,1.5c3.3,1.9,5.6,5,6.5,8.7s0.4,7.5-1.5,10.8c-1.9,3.3-5,5.6-8.7,6.5C164.1,121.9,162.9,122,161.7,122z      M161.7,95.6c-1,0-2.1,0.1-3.1,0.4c-3.2,0.8-5.8,2.8-7.5,5.6s-2.1,6.1-1.3,9.3c0.8,3.2,2.8,5.8,5.6,7.5c2.8,1.7,6.1,2.1,9.3,1.3     c3.2-0.8,5.8-2.8,7.5-5.6s2.1-6.1,1.3-9.3c-0.8-3.2-2.8-5.8-5.6-7.5C166,96.2,163.9,95.6,161.7,95.6z" style="fill:#1A1A1A;"></path>
		</g>
		<circle cx="189.3" cy="45.6" r="7" style="fill:#1dcba0;"></circle>
	</g>
	<g>
		<circle cx="147.9" cy="10.7" r="9.7" style="fill:#1A1A1A;"></circle>
		<path d="M147.9,21.4c-5.9,0-10.7-4.8-10.7-10.7S142,0,147.9,0s10.7,4.8,10.7,10.7S153.8,21.4,147.9,21.4z M147.9,2    c-4.8,0-8.7,3.9-8.7,8.7s3.9,8.7,8.7,8.7s8.7-3.9,8.7-8.7S152.7,2,147.9,2z" style="fill:#1A1A1A;"></path>
	</g>
	<g>
		<circle cx="96.7" cy="79.8" r="6.9" style="fill:#1A1A1A;"></circle>
		<path d="M96.7,87.7c-4.3,0-7.9-3.5-7.9-7.9s3.5-7.9,7.9-7.9s7.9,3.5,7.9,7.9S101,87.7,96.7,87.7z M96.7,74    c-3.2,0-5.9,2.6-5.9,5.9s2.6,5.9,5.9,5.9s5.9-2.6,5.9-5.9S99.9,74,96.7,74z" style="fill:#1A1A1A;"></path>
	</g>
</g>

            </g>
        </g>
    </g>
    
    <!-- ITEM 7 -->
    <g>
        <defs>
            <clipPath id="clip-path-id-viewbox-item-7">
                <rect x="0.0" y="0.0" width="152.5" height="152.5"/>
            </clipPath>
        </defs>
        <g transform="translate(1038.0 926.0) rotate(0.0 42.5 42.5) scale(0.5573770491803278 0.5573770491803278)">
            <g clip-path="url(#clip-path-id-viewbox-item-7)" transform="translate(-0.0 -0.0)">
                <title>circle_1 copy 5</title><g id="Layer_2-i8" data-name="Layer 2"><g id="circle_1_copy_5-i8" data-name="circle_1 copy 5"><circle cx="76.25" cy="76.25" r="76.25" fill="#1a1a1a"></circle></g></g>
            </g>
        </g>
    </g>
    
    <!-- ITEM 8 -->
    <g>
        <defs>
            <clipPath id="clip-path-id-viewbox-item-8">
                <rect x="0.0" y="0.0" width="152.5" height="152.5"/>
            </clipPath>
        </defs>
        <g transform="translate(654.0 1016.0) rotate(0.0 32.0 32.0) scale(0.419672131147541 0.419672131147541)">
            <g clip-path="url(#clip-path-id-viewbox-item-8)" transform="translate(-0.0 -0.0)">
                <title>circle_1 copy 5</title><g id="Layer_2-i9" data-name="Layer 2"><g id="circle_1_copy_5-i9" data-name="circle_1 copy 5"><circle cx="76.25" cy="76.25" r="76.25" fill="#1a1a1a"></circle></g></g>
            </g>
        </g>
    </g>
    
    <!-- ITEM 9 -->
    <g>
        <defs>
            <clipPath id="clip-path-id-viewbox-item-9">
                <rect x="0.0" y="0.0" width="19.8" height="37.9"/>
            </clipPath>
        </defs>
        <g transform="translate(1309.0 606.0) rotate(0.0 21.0 41.0) scale(2.121212121212121 2.163588390501319)">
            <g clip-path="url(#clip-path-id-viewbox-item-9)" transform="translate(-0.0 -0.0)">
                

<g>
	<path d="M1,37.9c-0.2,0-0.5-0.1-0.7-0.2c-0.5-0.4-0.5-1.1-0.1-1.5c2.6-3.1,5.3-5.5,7.6-7.6c4-3.6,7.4-6.8,9.3-11.9   c2.8-7.7-4.8-14.8-4.8-14.8c-0.4-0.4-0.5-1.1-0.1-1.5c0.4-0.4,1.1-0.5,1.5-0.1c0.4,0.3,8.6,8.1,5.4,17.1c-2,5.6-5.6,8.9-9.8,12.8   c-2.4,2.2-4.9,4.4-7.4,7.5C1.6,37.8,1.4,37.9,1,37.9z" style="fill:#FFFFFF;"></path>
</g>

            </g>
        </g>
    </g>
    
    <!-- ITEM 10 -->
    <g>
        <defs>
            <clipPath id="clip-path-id-viewbox-item-10">
                <rect x="0.0" y="0.0" width="23.5" height="20.3"/>
            </clipPath>
        </defs>
        <g transform="translate(284.0 471.0) rotate(0.0 25.0 21.5) scale(2.127659574468085 2.1182266009852215)">
            <g clip-path="url(#clip-path-id-viewbox-item-10)" transform="translate(-0.0 -0.0)">
                

<g>
	<path d="M1.1,20.3c-0.2,0-0.4-0.1-0.6-0.2c-0.5-0.3-0.6-1-0.3-1.5C0.5,18.1,8.7,5.9,22,0.1c0.5-0.2,1.2,0,1.4,0.5   s0,1.2-0.5,1.4C10.2,7.6,2.1,19.7,2,19.8C1.7,20.1,1.4,20.3,1.1,20.3z" style="fill:#FFFFFF;"></path>
</g>

            </g>
        </g>
    </g>
    
    <!-- ITEM 11 -->
    <g>
        <defs>
            <clipPath id="clip-path-id-viewbox-item-11">
                <rect x="0.0" y="0.0" width="242.38" height="364.0"/>
            </clipPath>
        </defs>
        <g transform="translate(226.0 431.0) rotate(0.0 121.0 182.0) scale(0.9984322138790329 1.0)">
            <g clip-path="url(#clip-path-id-viewbox-item-11)" transform="translate(-0.0 -0.0)">
                
<g>
	
		<linearGradient id="SVGID_1_-i12" gradientUnits="userSpaceOnUse" x1="228.3804" y1="143.5" x2="228.3804" y2="154.8444" gradientTransform="matrix(1 0 0 -1 0 332)">
		<stop offset="0" style="stop-color:#ffbe55"></stop>
		<stop offset="0.3042" style="stop-color:#ffc455"></stop>
		<stop offset="0.7987" style="stop-color:#ffd355"></stop>
		<stop offset="1" style="stop-color:#ffdb55"></stop>
	</linearGradient>
	<path style="fill:url(#SVGID_1_-i12);" d="M242.38,186c0,1.105-0.895,2-2,2h-24c-1.105,0-2-0.895-2-2v-6c0-1.105,0.895-2,2-2h24   c1.105,0,2,0.895,2,2V186z"></path>
	
		<linearGradient id="SVGID_2_-i12" gradientUnits="userSpaceOnUse" x1="228.3804" y1="133.6667" x2="228.3804" y2="143.9204" gradientTransform="matrix(1 0 0 -1 0 332)">
		<stop offset="0" style="stop-color:#ffbe55"></stop>
		<stop offset="0.3042" style="stop-color:#ffc455"></stop>
		<stop offset="0.7987" style="stop-color:#ffd355"></stop>
		<stop offset="1" style="stop-color:#ffdb55"></stop>
	</linearGradient>
	<path style="fill:url(#SVGID_2_-i12);" d="M242.38,196c0,1.105-0.895,2-2,2h-24c-1.105,0-2-0.895-2-2v-6c0-1.105,0.895-2,2-2h24   c1.105,0,2,0.895,2,2V196z"></path>
	
		<linearGradient id="SVGID_3_-i12" gradientUnits="userSpaceOnUse" x1="3.504" y1="157.1594" x2="65.5041" y2="217.8262" gradientTransform="matrix(1 0 0 -1 0 332)">
		<stop offset="0" style="stop-color:#ffbe55"></stop>
		<stop offset="0.0931" style="stop-color:#ffc355"></stop>
		<stop offset="0.4015" style="stop-color:#ffd055"></stop>
		<stop offset="0.706" style="stop-color:#ffd855"></stop>
		<stop offset="1" style="stop-color:#ffdb55"></stop>
	</linearGradient>
	<path style="fill:url(#SVGID_3_-i12);" d="M10.006,180c-2.902,0-5.781-1.258-7.758-3.684c-3.489-4.281-2.847-10.58,1.436-14.068l48-50   c4.28-3.49,10.58-2.846,14.068,1.436c3.489,4.281,2.847,10.58-1.436,14.068l-48,50C14.461,179.265,12.227,180,10.006,180z"></path>
	
		<linearGradient id="SVGID_4_-i12" gradientUnits="userSpaceOnUse" x1="152.3804" y1="222" x2="152.3804" y2="143.9144" gradientTransform="matrix(1 0 0 -1 0 332)">
		<stop offset="0" style="stop-color:#ffbe55"></stop>
		<stop offset="0.0931" style="stop-color:#ffc355"></stop>
		<stop offset="0.4015" style="stop-color:#ffd055"></stop>
		<stop offset="0.706" style="stop-color:#ffd855"></stop>
		<stop offset="1" style="stop-color:#ffdb55"></stop>
	</linearGradient>
	<path style="fill:url(#SVGID_4_-i12);" d="M162.38,188h-20v-78h9.621c5.523,0,10.379,4.477,10.379,10V188z"></path>
	
		<linearGradient id="SVGID_5_-i12" gradientUnits="userSpaceOnUse" x1="215.3804" y1="144" x2="140.8804" y2="144" gradientTransform="matrix(1 0 0 -1 0 332)">
		<stop offset="0" style="stop-color:#ffbe55"></stop>
		<stop offset="0.3042" style="stop-color:#ffc455"></stop>
		<stop offset="0.7987" style="stop-color:#ffd355"></stop>
		<stop offset="1" style="stop-color:#ffdb55"></stop>
	</linearGradient>
	<path style="fill:url(#SVGID_5_-i12);" d="M216.38,198h-64.512c-5.45,0-9.488-4.418-9.488-9.867v-0.265c0-5.45,4.038-9.868,9.488-9.868   h64.512V198z"></path>
	
		<linearGradient id="SVGID_6_-i12" gradientUnits="userSpaceOnUse" x1="80.3804" y1="90.2917" x2="80.3804" y2="4.8333" gradientTransform="matrix(1 0 0 -1 0 332)">
		<stop offset="0" style="stop-color:#ffbe55"></stop>
		<stop offset="0.2682" style="stop-color:#ffc155"></stop>
		<stop offset="0.6189" style="stop-color:#ffc955"></stop>
		<stop offset="1" style="stop-color:#ffd655"></stop>
	</linearGradient>
	<rect x="70.38" y="242" style="fill:url(#SVGID_6_-i12);" width="20" height="84"></rect>
	
		<linearGradient id="SVGID_7_-i12" gradientUnits="userSpaceOnUse" x1="124.3804" y1="90.2917" x2="124.3804" y2="4.8333" gradientTransform="matrix(1 0 0 -1 0 332)">
		<stop offset="0" style="stop-color:#ffbe55"></stop>
		<stop offset="0.2682" style="stop-color:#ffc155"></stop>
		<stop offset="0.6189" style="stop-color:#ffc955"></stop>
		<stop offset="1" style="stop-color:#ffd655"></stop>
	</linearGradient>
	<rect x="114.38" y="242" style="fill:url(#SVGID_7_-i12);" width="20" height="84"></rect>
	
		<linearGradient id="SVGID_8_-i12" gradientUnits="userSpaceOnUse" x1="102.3804" y1="146" x2="102.3804" y2="84.3108" gradientTransform="matrix(1 0 0 -1 0 332)">
		<stop offset="0" style="stop-color:#d8c655"></stop>
		<stop offset="1" style="stop-color:#050505"></stop>
	</linearGradient>
	<path style="fill:url(#SVGID_8_-i12);" d="M134,198h-19.62v-12h-24v12H70c-3.314,0-5.62,2.687-5.62,6v38c0,2.209,1.411,4,3.62,4h24   c2.209,0,4.38-1.791,4.38-4v-18c0-1.105,0.516-2,1.62-2h8c1.105,0,2.38,0.896,2.38,2v18c0,2.209,1.411,4,3.62,4h24   c2.209,0,4.38-1.791,4.38-4v-38C140.38,200.687,137.314,198,134,198z"></path>
	
		<linearGradient id="SVGID_9_-i12" gradientUnits="userSpaceOnUse" x1="102.3804" y1="218.3333" x2="102.3804" y2="234.2253" gradientTransform="matrix(1 0 0 -1 0 332)">
		<stop offset="0" style="stop-color:#d8c655"></stop>
		<stop offset="1" style="stop-color:#050505"></stop>
	</linearGradient>
	<rect x="90.38" y="98" style="fill:url(#SVGID_9_-i12);" width="24" height="16"></rect>
	
		<linearGradient id="SVGID_10_-i12" gradientUnits="userSpaceOnUse" x1="102.3557" y1="223" x2="102.3557" y2="141.4617" gradientTransform="matrix(1 0 0 -1 0 332)">
		<stop offset="0" style="stop-color:#d8c655"></stop>
		<stop offset="1" style="stop-color:#050505"></stop>
	</linearGradient>
	<path style="fill:url(#SVGID_10_-i12);" d="M133.627,190H70.375c-3.731,0-6.968-2.575-7.807-6.211l-10.17-44.89   c-0.138-0.597-0.018-1.208-0.018-1.821V114c0-2.209,1.411-4,3.62-4h92c2.209,0,4.379,1.791,4.379,4v23.078   c0,0.613-0.259,1.224-0.397,1.821l-10.454,44.89C140.69,187.425,137.358,190,133.627,190z"></path>
	
		<linearGradient id="SVGID_11_-i12" gradientUnits="userSpaceOnUse" x1="102.3804" y1="271" x2="102.3804" y2="244.4953" gradientTransform="matrix(1 0 0 -1 0 332)">
		<stop offset="0" style="stop-color:#000d00"></stop>
		<stop offset="0.222" style="stop-color:#000400"></stop>
		<stop offset="0.584" style="stop-color:#000000"></stop>
		<stop offset="1" style="stop-color:#000000"></stop>
	</linearGradient>
	<path style="fill:url(#SVGID_11_-i12);" d="M162.38,80c0,3.314-2.686,6-6,6h-108c-3.314,0-6-2.686-6-6V68c0-3.314,2.686-6,6-6h108   c3.314,0,6,2.686,6,6V80z"></path>
	
		<linearGradient id="SVGID_12_-i12" gradientUnits="userSpaceOnUse" x1="102.3804" y1="230.5" x2="102.3804" y2="326.5" gradientTransform="matrix(1 0 0 -1 0 332)">
		<stop offset="0" style="stop-color:#ffbe55"></stop>
		<stop offset="0.1665" style="stop-color:#ffc355"></stop>
		<stop offset="0.4381" style="stop-color:#ffd055"></stop>
		<stop offset="0.7789" style="stop-color:#111212"></stop>
		<stop offset="1" style="stop-color:#BBFAFF"></stop>
	</linearGradient>
	<path style="fill:url(#SVGID_12_-i12);" d="M144,102H60c-4.418,0-7.62-3.582-7.62-8V56c0-27.614,22.196-50,49.81-50h0.095   c27.614,0,50.095,22.386,50.095,50v38C152.38,98.418,148.419,102,144,102z"></path>
	<circle style="fill:#FFFFFF;" cx="124" cy="62" r="10"></circle>
	<circle style="fill:#FFFFFF;" cx="80" cy="62" r="10"></circle>
	
		<linearGradient id="SVGID_13_-i12" gradientUnits="userSpaceOnUse" x1="124.2379" y1="274.125" x2="124.2379" y2="265.8621" gradientTransform="matrix(1 0 0 -1 0 332)">
		<stop offset="0" style="stop-color:#4C4B4B"></stop>
		<stop offset="1" style="stop-color:#3A3838"></stop>
	</linearGradient>
	<path style="fill:url(#SVGID_13_-i12);" d="M128.38,61.82V62c0,2.2-1.99,4-4.19,4s-4.095-1.8-4.095-4s1.705-4,3.905-4h0.18   c-0.12,0-0.18,0.64-0.18,1c0,1.66,1.53,3,3.19,3C127.55,62,128.38,61.94,128.38,61.82z"></path>
	
		<linearGradient id="SVGID_14_-i12" gradientUnits="userSpaceOnUse" x1="80.2379" y1="274.125" x2="80.2379" y2="265.8621" gradientTransform="matrix(1 0 0 -1 0 332)">
		<stop offset="0" style="stop-color:#4C4B4B"></stop>
		<stop offset="1" style="stop-color:#3A3838"></stop>
	</linearGradient>
	<path style="fill:url(#SVGID_14_-i12);" d="M84.38,61.82V62c0,2.2-1.99,4-4.19,4s-4.095-1.8-4.095-4S77.8,58,80,58h0.18   C80.06,58,80,58.64,80,59c0,1.66,1.53,3,3.19,3C83.55,62,84.38,61.94,84.38,61.82z"></path>
	
		<linearGradient id="SVGID_15_-i12" gradientUnits="userSpaceOnUse" x1="102.0004" y1="253.8333" x2="102.0004" y2="241.6665" gradientTransform="matrix(1 0 0 -1 0 332)">
		<stop offset="0" style="stop-color:#cf983b"></stop>
		<stop offset="0.018" style="stop-color:#cf973a"></stop>
		<stop offset="0.6261" style="stop-color:#cb7f29"></stop>
		<stop offset="1" style="stop-color:#000e00"></stop>
	</linearGradient>
	<path style="fill:url(#SVGID_15_-i12);" d="M114,78c0,4-1.78,7.2-4.54,9.4c-2.04,1.64-4.64,2.6-7.46,2.6c-2.82,0-5.42-0.96-7.46-2.6   C91.78,85.2,90,82,90,78H114z"></path>
	
		<linearGradient id="SVGID_16_-i12" gradientUnits="userSpaceOnUse" x1="102.3805" y1="333.3333" x2="102.3805" y2="309.331" gradientTransform="matrix(1 0 0 -1 0 332)">
		<stop offset="0" style="stop-color:#000d00"></stop>
		<stop offset="0.222" style="stop-color:#000400"></stop>
		<stop offset="0.584" style="stop-color:#000000"></stop>
		<stop offset="1" style="stop-color:#000000"></stop>
	</linearGradient>
	<path style="fill:url(#SVGID_16_-i12);" d="M110.084,22H93.917c-3.268,0-5.537-2.649-5.537-5.917V6c0-3.314,2.307-6,5.62-6h16   c3.314,0,6.38,2.686,6.38,6v10.083C116.38,19.351,113.351,22,110.084,22z"></path>
	
		<linearGradient id="SVGID_17_-i12" gradientUnits="userSpaceOnUse" x1="72.0679" y1="287" x2="88.6304" y2="287" gradientTransform="matrix(1 0 0 -1 0 332)">
		<stop offset="0" style="stop-color:#000d00"></stop>
		<stop offset="0.222" style="stop-color:#000400"></stop>
		<stop offset="0.584" style="stop-color:#000000"></stop>
		<stop offset="1" style="stop-color:#000000"></stop>
	</linearGradient>
	<path style="fill:url(#SVGID_17_-i12);" d="M88.38,44c0-1.105-0.895-2-2-2h-12c-1.105,0-2,0.895-2,2v2c0,1.105,0.895,2,2,2h12   c1.105,0,2-0.895,2-2V44z"></path>
	
		<linearGradient id="SVGID_18_-i12" gradientUnits="userSpaceOnUse" x1="115.9429" y1="287" x2="132.9177" y2="287" gradientTransform="matrix(1 0 0 -1 0 332)">
		<stop offset="0" style="stop-color:#000d00"></stop>
		<stop offset="0.222" style="stop-color:#000400"></stop>
		<stop offset="0.584" style="stop-color:#000000"></stop>
		<stop offset="1" style="stop-color:#000000"></stop>
	</linearGradient>
	<path style="fill:url(#SVGID_18_-i12);" d="M132.38,44c0-1.105-0.895-2-2-2h-12c-1.105,0-2,0.895-2,2v2c0,1.105,0.895,2,2,2h12   c1.105,0,2-0.895,2-2V44z"></path>
	
		<linearGradient id="SVGID_19_-i12" gradientUnits="userSpaceOnUse" x1="218.3804" y1="148.3333" x2="218.3804" y2="160.1072" gradientTransform="matrix(1 0 0 -1 0 332)">
		<stop offset="0" style="stop-color:#ffbe55"></stop>
		<stop offset="0.3042" style="stop-color:#ffc455"></stop>
		<stop offset="0.7987" style="stop-color:#ffd355"></stop>
		<stop offset="1" style="stop-color:#ffdb55"></stop>
	</linearGradient>
	<path style="fill:url(#SVGID_19_-i12);" d="M232.38,180c0,2.209-1.791,4-4,4h-20c-2.209,0-4-1.791-4-4v-4c0-2.209,1.791-4,4-4h20   c2.209,0,4,1.791,4,4V180z"></path>
	
		<linearGradient id="SVGID_20_-i12" gradientUnits="userSpaceOnUse" x1="62.3804" y1="8" x2="62.3804" y2="-32.4214" gradientTransform="matrix(1 0 0 -1 0 332)">
		<stop offset="0" style="stop-color:#d8c655"></stop>
		<stop offset="0.1841" style="stop-color:#d9bd55"></stop>
		<stop offset="0.4844" style="stop-color:#dda555"></stop>
		<stop offset="0.8612" style="stop-color:#e37d55"></stop>
		<stop offset="1" style="stop-color:#050505"></stop>
	</linearGradient>
	<path style="fill:url(#SVGID_20_-i12);" d="M90,324H70c-2.209,0-3.62,1.791-3.62,4v14l-22.616,3.769   c-7.724,1.288-13.384,7.97-13.384,15.799V364H90c2.209,0,4.38-1.791,4.38-4v-32C94.38,325.791,92.21,324,90,324z"></path>
	
		<linearGradient id="SVGID_21_-i12" gradientUnits="userSpaceOnUse" x1="124.3804" y1="8.1667" x2="124.3804" y2="-31.1953" gradientTransform="matrix(1 0 0 -1 0 332)">
		<stop offset="0" style="stop-color:#d8c655"></stop>
		<stop offset="1" style="stop-color:#050505"></stop>
	</linearGradient>
	<path style="fill:url(#SVGID_21_-i12);" d="M138.38,360c0,2.209-1.791,4-4,4h-20c-2.209,0-4-1.791-4-4v-32c0-2.209,1.791-4,4-4h20   c2.209,0,4,1.791,4,4V360z"></path>
	
		<linearGradient id="SVGID_22_-i12" gradientUnits="userSpaceOnUse" x1="124.3804" y1="-7.3333" x2="124.3804" y2="-32.8247" gradientTransform="matrix(1 0 0 -1 0 332)">
		<stop offset="0" style="stop-color:#d8c655"></stop>
		<stop offset="0.1841" style="stop-color:#d9bd55"></stop>
		<stop offset="0.4844" style="stop-color:#dda555"></stop>
		<stop offset="0.8612" style="stop-color:#e37d55"></stop>
		<stop offset="1" style="stop-color:#050505"></stop>
	</linearGradient>
	<path style="fill:url(#SVGID_22_-i12);" d="M106.38,364h36v-6c0-9.941-8.249-18-18.19-18h0.095c-9.941,0-17.905,8.059-17.905,18V364z"></path>
	
		<linearGradient id="SVGID_23_-i12" gradientUnits="userSpaceOnUse" x1="-3.11" y1="162.7087" x2="61.3182" y2="110.5526" gradientTransform="matrix(1 0 0 -1 0 332)">
		<stop offset="0" style="stop-color:#ffbe55"></stop>
		<stop offset="0.2865" style="stop-color:#ffc955"></stop>
		<stop offset="0.7132" style="stop-color:#ffd655"></stop>
		<stop offset="1" style="stop-color:#ffdb55"></stop>
	</linearGradient>
	<path style="fill:url(#SVGID_23_-i12);" d="M52.64,192l-36.48-29.88c-4.36-3.4-10.64-2.62-14.04,1.72c-3.4,4.36-2.62,10.64,1.72,14.04   l46.811,37.798c0.971,0.759,1.728,1.922,1.728,3.154V234c0,5.252,5.055,9.319,10.568,7.6c0.847-0.264,1.432-1.056,1.432-1.943   v-37.57c0-1.309-0.826-2.535-1.896-3.289L52.64,192z"></path>
	
		<linearGradient id="SVGID_24_-i12" gradientUnits="userSpaceOnUse" x1="102.0005" y1="222" x2="102.0005" y2="166.4893" gradientTransform="matrix(1 0 0 -1 0 332)">
		<stop offset="0" style="stop-color:#1dcba0"></stop>
		<stop offset="1" style="stop-color:#1da382"></stop>
	</linearGradient>
	<path style="fill:url(#SVGID_24_-i12);" d="M114.98,136.62l-1.28,3.32l-9.84,25.28c-0.66,1.7-3.06,1.7-3.72,0l-9.84-25.28l-1.28-3.32   c-0.62-1.58-0.18-3.36,1.08-4.5l7.38-6.64l1.1-1c1.68-1.52,1.76-4.14,0.14-5.76L90,110h24l-8.72,8.72   c-1.62,1.62-1.54,4.24,0.14,5.76l1.1,1l7.38,6.64C115.161,133.26,115.6,135.04,114.98,136.62z"></path>
	<path style="opacity:0.2;enable-background:new    ;" d="M109.46,87.4c-2.04,1.64-4.64,2.6-7.46,2.6c-2.82,0-5.42-0.96-7.46-2.6   C95.68,84.94,98.6,84,102,84C105.401,84,108.32,84.94,109.46,87.4z"></path>
	<path style="fill:#FFFFFF;" d="M112,74H92c-1.105,0-1.62,0.896-1.62,2v2h24v-2C114.38,74.896,113.105,74,112,74z"></path>
	
		<linearGradient id="SVGID_25_-i12" gradientUnits="userSpaceOnUse" x1="80.3804" y1="82" x2="80.3804" y2="86" gradientTransform="matrix(1 0 0 -1 0 332)">
		<stop offset="0" style="stop-color:#0000A2;stop-opacity:0"></stop>
		<stop offset="1" style="stop-color:#00009F;stop-opacity:0.12"></stop>
	</linearGradient>
	<rect x="70.38" y="246" style="fill:url(#SVGID_25_-i12);" width="20" height="4"></rect>
	
		<linearGradient id="SVGID_26_-i12" gradientUnits="userSpaceOnUse" x1="124.3804" y1="82" x2="124.3804" y2="86" gradientTransform="matrix(1 0 0 -1 0 332)">
		<stop offset="0" style="stop-color:#0000A2;stop-opacity:0"></stop>
		<stop offset="1" style="stop-color:#00009F;stop-opacity:0.12"></stop>
	</linearGradient>
	<rect x="114.38" y="246" style="fill:url(#SVGID_26_-i12);" width="20" height="4"></rect>
	<path style="opacity:0.07;enable-background:new    ;" d="M228.759,184H216.38h-1h-7.379c-2.2,0-3.621-1.8-3.621-4v4   c0,2.2,1.421,4,3.621,4h7.379h1h12.379c2.2,0,3.621-1.8,3.621-4v-4C232.38,182.2,230.959,184,228.759,184z"></path>
	
		<linearGradient id="SVGID_27_-i12" gradientUnits="userSpaceOnUse" x1="48.342" y1="204.61" x2="53.3454" y2="204.61" gradientTransform="matrix(1 0 0 -1 0 332)">
		<stop offset="0" style="stop-color:#0000A2;stop-opacity:0"></stop>
		<stop offset="1" style="stop-color:#00009F;stop-opacity:0.12"></stop>
	</linearGradient>
	<path style="fill:url(#SVGID_27_-i12);" d="M52.39,138.9l0.185,1.2l-3.267,3.36l-0.894-4.56c-0.14-0.6-0.034-1.2-0.034-1.82v-21   l3.49-3.84c0.44-0.36,0.995-0.66,1.475-0.92c-0.68,0.7-0.965,1.64-0.965,2.68v23.08C52.38,137.7,52.25,138.3,52.39,138.9z"></path>
</g>

            </g>
        </g>
    </g>
    
    <!-- ITEM 12 -->
    <g>
        <defs>
            <clipPath id="clip-path-id-viewbox-item-12">
                <rect x="0.0" y="0.0" width="409.5" height="167.6"/>
            </clipPath>
        </defs>
        <g transform="translate(424.0 434.0) rotate(0.0 439.0 179.0) scale(2.144078144078144 2.136038186157518)">
            <g clip-path="url(#clip-path-id-viewbox-item-12)" transform="translate(-0.0 -0.0)">
                

<g>
	<path d="M407.6,32.4l-36.1-31c-2.2-1.9-5.7-1.7-7.6,0.5L363.6,2c-1,1.1-1.5,2.5-1.4,4c0.1,1.5,0.8,2.8,1.9,3.8   l36.3,30.9c1,0.8,2.2,1.3,3.5,1.3c0.2,0,0.4,0,0.6,0c1.5-0.2,2.8-0.9,3.8-2.1C410.1,37.5,409.8,34.3,407.6,32.4z" style="fill:#1A1A1A;"></path>
	<path d="M382.6,16.3c-0.4-1-1.5-1.5-2.5-1.1L110.5,116.4c-6.8,2.6-13,6.1-18.4,10.6c0,0,0,0-0.1,0l-9.7,0.4l-9.7,0.3   l-9.7,0.3c-2.5,0.1-5,0.2-7.6,0.2c-1.9-2.9-3.8-5.7-5.7-8.5c-4.7-6.8-9.7-13.3-14.8-19.8C29.6,93.5,24.4,87.1,19,81l0,0   c-0.1-0.1-0.2-0.2-0.4-0.3l-0.4-0.1L4.4,78C4,78,3.5,78,3,78c-2,0.4-3.3,2.3-2.9,4.3s2.3,3.3,4.3,2.9l13.4-2.5   c5.1,6.1,10.1,12.4,14.9,18.8c4.9,6.5,9.7,13.2,14.2,20c1.8,2.7,3.5,5.4,5.2,8.1c0,0.1,0.1,0.2,0.2,0.3c2.5,4.1,4.9,8.3,7.2,12.6   c1.9,3.6,3.5,7.2,4.9,11c0.7,1.9,1.3,3.7,1.7,5.6s0.7,3.8,0.7,5.6v0v0c0,0.5,0.2,1,0.5,1.3c0.1,0.5,0.5,0.9,1,1.2   c0.3,0.1,0.6,0.2,0.8,0.2c0.7,0,1.4-0.4,1.8-1.1l7.4-15.4c6.9-14.4,18.9-25.3,33.8-30.9L381.5,18.8C382.5,18.4,383,17.3,382.6,16.3   z M74.6,149.3l-4.5,9.3c0-0.2-0.1-0.4-0.1-0.5c-0.5-2.1-1.2-4.1-2-6.1c-1.5-3.9-3.4-7.7-5.4-11.3c-1.9-3.6-4-7-6.2-10.5   c2.1,0,4.2,0.1,6.3,0.2l9.7,0.3l9.7,0.3l5.2,0.2C82.2,136.4,77.9,142.5,74.6,149.3z" style="fill:#1A1A1A;"></path>
	<g>
		<path d="M379.4,15.8c-0.5,0-0.9-0.1-1.3-0.5l-11.7-10c-0.8-0.7-0.9-1.9-0.2-2.7c0.7-0.8,1.9-0.9,2.7-0.2l11.7,10    c0.8,0.7,0.9,1.9,0.2,2.7C380.5,15.6,380,15.8,379.4,15.8z" style="fill:#FFFFFF;"></path>
	</g>
</g>

            </g>
        </g>
    </g>
    
    <!-- ITEM 13 -->
    <g>
        <defs>
            <clipPath id="clip-path-id-viewbox-item-13">
                <rect x="0.0" y="0.0" width="655.0" height="144.0"/>
            </clipPath>
        </defs>
        <g transform="translate(612.0 1134.0) rotate(0.0 327.5 72.0) scale(1.0 1.0)">
            <g clip-path="url(#clip-path-id-viewbox-item-13)" transform="translate(-0.0 -0.0)">
                <path fill="#141414" stroke="#141414" d="M1.02 108.77L1.02 108.77Q1.25 107.59 1.33 106.85Q1.41 106.11 0.78 105.25L0.78 105.25Q1.09 104 1.29 103.30Q1.48 102.59 1.33 101.34L1.33 101.34Q2.03 99.31 3.48 97.91Q4.92 96.50 6.64 95.52Q8.36 94.55 10.23 93.88Q12.11 93.22 13.75 92.75L13.75 92.75Q13.75 92.44 13.44 92.44Q13.13 92.44 13.28 92.05L13.28 92.05Q17.50 91.27 21.76 89.78Q26.02 88.30 30.47 87.13Q34.92 85.95 39.61 85.68Q44.30 85.41 49.45 86.89L49.45 86.89Q49.77 87.83 50.31 88.69Q50.86 89.55 51.45 90.37Q52.03 91.19 52.50 91.97Q52.97 92.75 53.05 93.61L53.05 93.61Q53.98 94.47 54.57 95.45Q55.16 96.42 54.77 98.06L54.77 98.06Q53.91 98.69 52.97 99.31Q52.03 99.94 51.02 100.48L51.02 100.48Q47.50 99.63 43.98 99.86Q40.47 100.09 37.66 100.41L37.66 100.41Q36.80 99.47 35.63 99.51Q34.45 99.55 33.16 99.90Q31.88 100.25 30.63 100.60Q29.38 100.95 28.28 100.80L28.28 100.80Q27.42 101.58 26.02 101.85Q24.61 102.13 23.05 102.28L23.05 102.28Q22.97 102.67 23.20 102.83Q23.44 102.98 23.28 103.45L23.28 103.45Q23.83 104.16 24.77 104.43Q25.70 104.70 26.68 104.94Q27.66 105.17 28.44 105.60Q29.22 106.03 29.45 106.97L29.45 106.97Q30.86 107.05 31.88 107.71Q32.89 108.38 33.59 109.31Q34.30 110.25 34.61 111.30Q34.92 112.36 34.84 113.22L34.84 113.22Q35.16 114 35.51 113.84Q35.86 113.69 36.33 114.23L36.33 114.23Q36.64 115.41 37.77 116.70Q38.91 117.98 39.53 119.47L39.53 119.47Q39.69 121.81 39.80 123.69Q39.92 125.56 39.14 127.36L39.14 127.36Q37.81 130.80 35.31 133.53Q32.81 136.27 29.65 138.34Q26.48 140.41 22.97 141.93Q19.45 143.45 16.02 144.47L16.02 144.47Q15.70 144.39 15.27 144.47Q14.84 144.55 15.08 144L15.08 144Q14.38 144.63 13.48 144.78Q12.58 144.94 11.52 144.90Q10.47 144.86 9.41 144.78Q8.36 144.70 7.34 144.86L7.34 144.86Q6.72 144.23 6.21 143.61Q5.70 142.98 5.39 142.13L5.39 142.13Q5 142.05 5.04 141.62Q5.08 141.19 4.69 141.19L4.69 141.19Q4.69 140.88 4.77 140.72Q4.84 140.56 4.92 140.41L4.92 140.41Q5.23 140.17 5.20 140.05Q5.16 139.94 4.96 139.82Q4.77 139.70 4.57 139.55Q4.38 139.39 4.45 139.16L4.45 139.16Q4.84 138.45 4.73 137.48Q4.61 136.50 4.53 135.48Q4.45 134.47 4.69 133.57Q4.92 132.67 6.02 132.05L6.02 132.05Q9.22 132.36 12.07 131.73Q14.92 131.11 17.46 130.02Q20 128.92 22.30 127.63Q24.61 126.34 26.80 125.25L26.80 125.25Q27.03 124.47 27.54 123.92Q28.05 123.38 28.59 122.87Q29.14 122.36 29.61 121.77Q30.08 121.19 30.31 120.33L30.31 120.33Q30.39 120.02 30.31 119.86Q30.23 119.70 30.08 119.59Q29.92 119.47 29.77 119.31Q29.61 119.16 29.61 118.84L29.61 118.84Q29.38 118.77 29.18 118.69Q28.98 118.61 28.83 118.61L28.83 118.61Q26.80 117.59 24.53 116.89Q22.27 116.19 20.70 115.33L20.70 115.33Q19.77 115.95 18.83 115.64Q17.89 115.33 16.56 115.02L16.56 115.02Q13.28 114.86 10.35 114.39Q7.42 113.92 4.69 112.75L4.69 112.75Q4.53 112.28 4.30 111.93Q4.06 111.58 3.20 111.73L3.20 111.73Q2.66 110.95 2.07 110.29Q1.48 109.63 1.02 108.77ZM99.38 142.59L99.38 142.59Q98.59 142.98 97.93 143.30Q97.27 143.61 96.41 143.61L96.41 143.61Q93.36 141.34 93.24 135.72Q93.13 130.09 95.63 121.42L95.63 121.42Q96.02 121.19 96.02 120.48L96.02 120.48L95.31 119.70Q95 119.70 94.73 119.78Q94.45 119.86 94.30 120.33L94.30 120.33Q92.27 121.81 89.84 123.41Q87.42 125.02 84.80 126.38Q82.19 127.75 79.49 128.61Q76.80 129.47 74.22 129.47L74.22 129.47Q67.66 129.47 64.38 122.83L64.38 122.83L63.75 121.66L63.13 122.67Q62.89 122.98 62.42 123.96Q61.95 124.94 61.48 126.19Q61.02 127.44 60.66 128.73Q60.31 130.02 60.39 130.95L60.39 130.95Q59.69 131.66 58.91 132.59Q58.13 133.53 57.73 134.70L57.73 134.70Q57.58 135.33 57.89 135.88L57.89 135.88Q57.73 136.58 57.19 136.97L57.19 136.97Q56.88 137.36 56.52 137.71Q56.17 138.06 55.94 138.45L55.94 138.45Q55.78 138.84 55.74 139.23Q55.70 139.63 55.63 140.02L55.63 140.02Q55.63 140.56 55.47 141.03L55.47 141.03Q54.14 143.77 53.36 144.59Q52.58 145.41 51.25 145.41L51.25 145.41Q50.63 145.41 49.22 145.17L49.22 145.17Q48.20 144.08 47.38 142.16Q46.56 140.25 46.13 138.06Q45.70 135.88 45.74 133.65Q45.78 131.42 46.48 129.78L46.48 129.78Q46.48 129.70 47.11 128.22Q47.73 126.73 48.71 124.39Q49.69 122.05 50.94 119.20Q52.19 116.34 53.44 113.65Q54.69 110.95 55.82 108.69Q56.95 106.42 57.73 105.25L57.73 105.25Q58.36 104.31 58.87 103.49Q59.38 102.67 59.84 101.89L59.84 101.89Q61.25 99.47 62.54 97.87Q63.83 96.27 66.33 95.33L66.33 95.33Q68.05 96.03 68.83 96.97L68.83 96.97L68.98 97.83Q69.30 98.61 69.92 98.61L69.92 98.61Q70.78 98.84 71.37 99.04Q71.95 99.23 72.66 99.39L72.66 99.39Q73.20 100.02 73.67 100.88L73.67 100.88Q74.30 101.81 74.88 102.71Q75.47 103.61 75.82 104.51Q76.17 105.41 76.21 106.34Q76.25 107.28 75.86 108.30L75.86 108.30L75.94 109.08Q76.33 109.78 76.09 111.03L76.09 111.03Q76.02 111.58 76.02 112.16Q76.02 112.75 76.17 113.45L76.17 113.45Q77.58 114.55 78.67 114.55L78.67 114.55Q79.92 114.55 80.98 113.96Q82.03 113.38 82.97 112.75L82.97 112.75Q83.59 112.28 84.22 111.93Q84.84 111.58 85.47 111.50L85.47 111.50Q86.88 110.17 88.01 109.16Q89.14 108.14 90.39 107.13L90.39 107.13Q92.73 105.25 94.92 103.06Q97.11 100.88 98.44 97.59L98.44 97.59Q99.22 97.13 100.08 97.13L100.08 97.13Q100.94 97.13 101.88 97.52Q102.81 97.91 103.67 98.30L103.67 98.30Q103.91 98.45 104.10 98.53Q104.30 98.61 104.45 98.69L104.45 98.69Q104.45 99.47 105.08 100.02L105.08 100.02Q105.39 100.25 105.47 100.33Q105.55 100.41 105.70 100.48L105.70 100.48Q106.88 101.11 107.19 101.73L107.19 101.73Q107.73 103.53 109.14 104.47L109.14 104.47Q108.98 105.25 109.18 105.91Q109.38 106.58 109.69 107.28L109.69 107.28Q109.77 107.52 109.84 107.75Q109.92 107.98 110.08 108.30L110.08 108.30L108.59 108.14L108.83 109.63Q108.98 110.72 108.63 112.05Q108.28 113.38 107.81 114.16L107.81 114.16Q107.89 116.19 107.93 117.32Q107.97 118.45 107.81 119.43Q107.66 120.41 107.38 121.27Q107.11 122.13 106.64 123.14L106.64 123.14Q106.95 128.14 105.51 132.24Q104.06 136.34 102.50 139.94L102.50 139.94Q102.34 140.33 102.15 140.72Q101.95 141.11 101.80 141.50L101.80 141.50Q101.09 141.73 100.55 142.01Q100 142.28 99.38 142.59ZM151.95 137.13L151.80 137.44Q151.33 138.77 150.43 140.13Q149.53 141.50 148.32 142.55Q147.11 143.61 145.63 144.31Q144.14 145.02 142.50 145.09L142.50 145.09Q141.48 144.86 141.13 144.59Q140.78 144.31 140.39 144.08L140.39 144.08Q140.16 143.92 139.96 143.80Q139.77 143.69 139.61 143.61L139.61 143.61L138.67 143.22L138.98 142.20Q139.14 141.58 138.91 141.23Q138.67 140.88 137.97 140.25L137.97 140.25Q137.73 140.02 137.50 139.78Q137.27 139.55 137.11 139.31L137.11 139.31L135.78 137.83L137.89 137.28Q139.84 136.73 140.51 135.88Q141.17 135.02 141.02 132.98L141.02 132.98Q139.45 132.67 138.40 132.91Q137.34 133.14 136.25 133.45L136.25 133.45Q134.84 133.84 133.40 134.12Q131.95 134.39 130.23 134.39L130.23 134.39Q129.61 134.39 129.06 134.35Q128.52 134.31 127.89 134.23L127.89 134.23L127.11 134.08Q126.95 133.22 126.80 133.10Q126.64 132.98 126.48 132.83L126.48 132.83Q126.09 132.44 125.66 131.77Q125.23 131.11 125.47 130.09L125.47 130.09Q125.08 129.39 125 128.69L125 128.69Q124.53 129.63 124.30 130.64L124.30 130.64L123.98 131.42L123.20 131.58Q123.05 131.66 122.97 131.93Q122.89 132.20 122.89 132.36L122.89 132.36L122.50 133.69Q122.34 133.84 122.19 133.96Q122.03 134.08 121.88 134.23L121.88 134.23Q121.72 134.94 121.48 135.64Q121.25 136.34 121.02 136.97L121.02 136.97Q120.63 137.98 120.35 138.96Q120.08 139.94 120.16 140.88L120.16 140.88L119.84 141.73Q119.45 142.20 118.98 142.48Q118.52 142.75 118.05 142.98L118.05 142.98Q117.89 143.14 117.62 143.26Q117.34 143.38 117.19 143.45L117.19 143.45L116.95 144.31L116.02 144.47Q115.16 144.63 114.80 144.70Q114.45 144.78 113.98 144.78L113.98 144.78L113.20 144.70Q112.34 144 111.88 143.57Q111.41 143.14 110.78 142.75L110.78 142.75Q110.08 141.81 110 141.34Q109.92 140.88 109.84 140.48L109.84 140.48Q109.69 140.02 109.65 139.70Q109.61 139.39 109.45 139.23L109.45 139.23L108.44 138.30L109.30 137.59L109.38 136.27Q110.94 132.28 112.70 128.61Q114.45 124.94 116.33 121.11L116.33 121.11Q116.95 119.86 117.54 118.61Q118.13 117.36 118.75 116.11L118.75 116.11Q118.67 115.88 118.67 115.56Q118.67 115.25 118.83 114.86L118.83 114.86Q119.69 113.53 120.23 112.48Q120.78 111.42 121.33 110.33L121.33 110.33Q121.95 109 122.62 107.75Q123.28 106.50 124.30 105.17L124.30 105.17L125.55 104.63Q125.78 104.55 126.09 104.43Q126.41 104.31 126.80 104.31L126.80 104.31L127.97 104.47Q130.16 103.45 131.80 101.62Q133.44 99.78 135.16 97.20L135.16 97.20L135.94 96.11L136.95 96.73Q137.34 96.97 138.05 97.16Q138.75 97.36 139.53 97.59L139.53 97.59Q140.94 97.91 142.19 98.30Q143.44 98.69 144.22 99.47L144.22 99.47Q144.69 100.72 144.77 101.34Q144.84 101.97 145 102.59L145 102.59Q145.23 103.92 145.43 105.25Q145.63 106.58 145.70 108.22L145.70 108.22Q146.09 109.55 146.37 110.84Q146.64 112.13 146.88 113.45L146.88 113.45Q147.27 115.33 147.66 117.09Q148.05 118.84 148.67 120.41L148.67 120.41Q149.30 120.41 149.45 120.48L149.45 120.48Q149.84 120.33 150.27 120.25Q150.70 120.17 151.25 120.09L151.25 120.09L152.11 120.02L152.42 120.80Q152.50 121.19 153.20 121.58L153.20 121.58Q154.22 121.66 154.69 122.01Q155.16 122.36 155.55 122.75L155.55 122.75Q155.86 123.06 156.17 123.22L156.17 123.22L157.34 123.69L156.72 124.86Q155.94 126.27 154.49 127.55Q153.05 128.84 151.25 129.70L151.25 129.70Q151.33 130.17 151.37 130.60Q151.41 131.03 151.56 131.50L151.56 131.50Q151.80 132.83 151.95 134.23Q152.11 135.64 151.95 137.13L151.95 137.13ZM129.22 123.92L129.22 123.92Q131.56 123.77 133.48 123.57Q135.39 123.38 137.73 122.91L137.73 122.91Q137.19 120.56 136.56 118.02Q135.94 115.48 135.23 112.98L135.23 112.98L134.77 113.77Q133.20 115.41 131.76 117.44Q130.31 119.47 129.30 121.27L129.30 121.27Q128.83 121.97 128.36 122.67Q127.89 123.38 127.50 124.08L127.50 124.08Q127.97 124 128.40 124Q128.83 124 129.22 123.92ZM169.53 135.88L169.53 135.88Q168.67 139 168.01 140.60Q167.34 142.20 166.02 143.92L166.02 143.92Q165 143.77 164.61 144.16Q164.22 144.55 163.75 144.86L163.75 144.86Q163.05 145.02 162.73 144.86Q162.42 144.70 162.19 144.51Q161.95 144.31 161.60 144.12Q161.25 143.92 160.55 143.92L160.55 143.92Q160.39 143.30 160.20 142.75Q160 142.20 159.14 142.36L159.14 142.36Q159.30 141.73 159.22 141.30Q159.14 140.88 159.02 140.52Q158.91 140.17 158.83 139.82Q158.75 139.47 158.91 138.92L158.91 138.92Q158.52 138.92 158.28 138.38Q158.05 137.83 157.73 137.28L157.73 137.28Q157.97 135.88 158.20 134.63Q158.44 133.38 158.79 132.28Q159.14 131.19 159.38 130.09Q159.61 129 159.14 127.83L159.14 127.83Q159.45 128.06 159.61 127.71Q159.77 127.36 159.84 126.77Q159.92 126.19 159.92 125.60Q159.92 125.02 159.84 124.63L159.84 124.63Q160.63 122.59 161.13 120.45Q161.64 118.30 162.07 116.19Q162.50 114.08 162.97 112.05Q163.44 110.02 164.22 108.30L164.22 108.30Q165.08 108.14 166.13 108.49Q167.19 108.84 167.42 109.39L167.42 109.39Q169.45 107.83 171.02 105.60Q172.58 103.38 174.22 101.27Q175.86 99.16 177.85 97.52Q179.84 95.88 182.89 95.56L182.89 95.56Q184.45 96.73 186.37 97.95Q188.28 99.16 189.53 101.11L189.53 101.11Q190.16 101.42 190.59 101.77Q191.02 102.13 191.64 102.52L191.64 102.52L191.64 103.45Q192.58 104.31 193.16 105.45Q193.75 106.58 194.22 107.87Q194.69 109.16 195.16 110.45Q195.63 111.73 196.25 112.91L196.25 112.91Q196.09 113.30 196.09 113.57Q196.09 113.84 196.21 114.16Q196.33 114.47 196.41 114.78Q196.48 115.09 196.41 115.64L196.41 115.64Q196.17 119.08 194.18 121.19Q192.19 123.30 189.38 124.66Q186.56 126.03 183.36 126.97Q180.16 127.91 177.58 129L177.58 129Q177.58 129.31 177.85 129.31Q178.13 129.31 178.05 129.70L178.05 129.70Q179.92 130.88 181.02 131.58Q182.11 132.28 183.09 132.75Q184.06 133.22 185.20 133.57Q186.33 133.92 188.36 134.39L188.36 134.39Q190.39 134.86 191.52 135.13Q192.66 135.41 193.59 135.60Q194.53 135.80 195.51 135.91Q196.48 136.03 198.28 136.19L198.28 136.19Q198.98 136.89 199.49 137.87Q200 138.84 200.16 139.82Q200.31 140.80 200.23 141.70Q200.16 142.59 199.69 143.14L199.69 143.14Q199.77 143.38 200.04 143.34Q200.31 143.30 200.63 143.38L200.63 143.38Q200.16 143.69 199.84 144.16Q199.53 144.63 199.22 145.09Q198.91 145.56 198.52 145.91Q198.13 146.27 197.42 146.34L197.42 146.34Q195 147.28 191.33 146.46Q187.66 145.64 182.03 143.45L182.03 143.45Q179.22 142.36 177.46 141.54Q175.70 140.72 174.41 139.90Q173.13 139.08 172.07 138.14Q171.02 137.20 169.53 135.88ZM180.70 109.08L180.70 109.08Q179.84 110.33 178.79 111.34Q177.73 112.36 176.76 113.41Q175.78 114.47 175 115.76Q174.22 117.05 173.91 118.77L173.91 118.77Q176.64 118.45 179.61 117.24Q182.58 116.03 185.23 114.94L185.23 114.94Q184.92 112.52 183.55 111.03Q182.19 109.55 180.70 109.08ZM242.27 106.42L242.27 106.42Q240.31 106.42 238.05 106.70Q235.78 106.97 233.59 107.28L233.59 107.28Q232.03 107.52 230.59 107.67Q229.14 107.83 227.97 107.91L227.97 107.91Q227.42 109.63 226.88 110.95Q226.33 112.28 225.70 113.53L225.70 113.53Q225.08 114.86 224.57 116.23Q224.06 117.59 223.59 119.16L223.59 119.16Q222.81 120.41 222.30 121.46Q221.80 122.52 221.48 123.84L221.48 123.84Q220.55 125.02 220.08 126.30Q219.61 127.59 219.38 128.53L219.38 128.53L219.06 129.47Q218.59 129.94 218.52 130.21Q218.44 130.48 218.13 130.72L218.13 130.72Q218.05 131.58 217.58 132.44L217.58 132.44Q217.42 132.83 217.34 133.18Q217.27 133.53 217.27 133.69L217.27 133.69Q217.27 134.47 216.88 134.70L216.88 134.70Q216.95 135.09 216.88 135.52Q216.80 135.95 216.72 136.34L216.72 136.34Q216.48 137.28 216.56 137.83L216.56 137.83Q216.80 138.14 216.99 138.38Q217.19 138.61 217.27 139L217.27 139Q217.73 139.31 217.97 139.39L217.97 139.39Q218.28 139.63 218.91 139.94L218.91 139.94L219.61 140.72Q220 142.98 218.91 144.31L218.91 144.31Q217.73 145.80 214.92 145.80L214.92 145.80L213.98 145.80Q213.59 145.41 213.52 145.17L213.52 145.17Q212.89 144.94 212.50 144.78Q212.11 144.63 211.80 144.16L211.80 144.16Q210.78 143.69 210.16 143.38L210.16 143.38L209.45 142.98Q209.45 142.13 209.45 142.05L209.45 142.05Q208.91 141.34 208.63 140.48Q208.36 139.63 208.20 138.77L208.20 138.77Q208.05 138.06 207.85 137.44Q207.66 136.81 207.34 136.34L207.34 136.34Q207.19 131.81 208.20 128.69Q209.22 125.56 210.31 122.67L210.31 122.67Q210.94 121.11 211.56 119.51Q212.19 117.91 212.66 116.19L212.66 116.19L213.36 115.41Q213.91 114.16 214.26 113.34Q214.61 112.52 215 111.66L215 111.66Q215.23 111.11 215.43 110.60Q215.63 110.09 215.78 109.70L215.78 109.70Q215.31 109.70 214.92 109.74Q214.53 109.78 214.14 109.86L214.14 109.86Q213.67 109.94 213.28 109.98Q212.89 110.02 212.50 110.02L212.50 110.02Q211.95 110.02 211.72 109.94L211.72 109.94Q210.86 110.33 209.84 110.33L209.84 110.33L209.06 110.33Q208.83 110.33 208.63 110.29Q208.44 110.25 208.28 110.25L208.28 110.25Q207.50 110.25 207.03 110.48L207.03 110.48Q206.09 110.48 205.23 110.48L205.23 110.48L204.45 110.48Q204.30 110.48 204.06 110.52Q203.83 110.56 203.67 110.56L203.67 110.56Q203.13 110.56 202.50 110.45Q201.88 110.33 201.17 109.94L201.17 109.94Q200.23 108.69 199.92 108.61L199.92 108.61L199.22 107.67Q199.14 107.20 198.98 106.77Q198.83 106.34 198.67 105.80L198.67 105.80Q198.36 105.02 198.09 104.12Q197.81 103.22 197.81 101.97L197.81 101.97Q197.89 101.34 198.13 101.03Q198.36 100.72 198.52 100.48L198.52 100.48L198.75 99.31L199.77 99.39L201.95 99.39Q204.45 99.39 207.03 99.20Q209.61 99 212.34 98.77L212.34 98.77Q213.91 98.61 215.51 98.45Q217.11 98.30 218.83 98.14L218.83 98.14Q219.14 97.44 219.45 96.81L219.45 96.81L220.23 96.42Q221.64 96.34 222.23 96.77Q222.81 97.20 223.20 97.59L223.20 97.59Q224.92 97.44 226.68 97.24Q228.44 97.05 230.23 96.73L230.23 96.73Q232.89 96.34 235.59 96.03Q238.28 95.72 240.78 95.72L240.78 95.72Q241.88 95.72 242.89 95.80Q243.91 95.88 244.77 96.03L244.77 96.03L245.55 96.58Q245.78 97.05 246.21 97.44Q246.64 97.83 247.11 98.22L247.11 98.22Q248.05 99.08 248.98 100.25Q249.92 101.42 249.69 103.69L249.69 103.69Q249.06 104.63 248.75 104.78L248.75 104.78L248.05 105.72L247.27 105.64Q246.80 105.64 246.41 105.76Q246.02 105.88 245.63 106.03L245.63 106.03Q245.31 106.19 245 106.30Q244.69 106.42 244.30 106.50L244.30 106.50Q243.59 106.50 243.16 106.46Q242.73 106.42 242.27 106.42ZM269.22 128.14L269.22 128.14Q266.88 126.81 265.63 124.39Q264.38 121.97 264.22 119.78L264.22 119.78Q264.45 117.91 265.20 116.85Q265.94 115.80 266.95 115.13Q267.97 114.47 269.06 114.12Q270.16 113.77 271.17 113.53L271.17 113.53L272.34 113.92Q272.73 114.31 273.16 114.63Q273.59 114.94 273.98 115.25L273.98 115.25Q274.77 114.94 274.96 114.31Q275.16 113.69 275.39 113.06L275.39 113.06Q275.63 112.20 275.94 111.34Q276.25 110.48 276.72 109.63L276.72 109.63Q276.64 108.92 276.80 108.38Q276.95 107.83 277.11 107.44L277.11 107.44Q276.64 107.05 276.45 107.01Q276.25 106.97 275.78 106.81L275.78 106.81Q275.55 106.81 275.31 106.77Q275.08 106.73 274.77 106.66L274.77 106.66Q273.59 105.80 273.24 105.21Q272.89 104.63 272.50 104L272.50 104Q272.11 103.38 271.80 102.91Q271.48 102.44 271.09 102.05L271.09 102.05L270.16 101.42L270.63 100.48Q270.78 100.33 270.78 100.05Q270.78 99.78 270.47 99.23L270.47 99.23Q270.23 98.22 270.39 97.75L270.39 97.75L270.55 96.81Q271.33 95.80 271.41 95.64L271.41 95.64L272.19 94.86Q273.98 94.39 275.86 93.80Q277.73 93.22 279.53 92.59L279.53 92.59Q281.33 91.97 283.20 91.34Q285.08 90.72 286.95 90.25L286.95 90.25Q287.58 89.70 288.32 89.59Q289.06 89.47 289.69 89.39L289.69 89.39Q290.23 89.39 290.70 89.31Q291.17 89.23 291.41 88.92L291.41 88.92Q292.73 88.45 293.98 88.14L293.98 88.14Q296.33 87.52 300.16 86.66Q303.98 85.80 308.75 85.41L308.75 85.41L310.39 85.33Q310.86 85.41 311.33 85.37Q311.80 85.33 312.27 85.33L312.27 85.33Q316.33 85.33 317.66 87.83L317.66 87.83Q318.44 88.22 319.06 88.80Q319.69 89.39 320.23 89.94L320.23 89.94Q320.63 90.33 320.94 90.60Q321.25 90.88 321.48 91.03L321.48 91.03L322.11 91.66Q322.97 93.53 322.42 95.33L322.42 95.33Q321.95 96.27 321.41 96.42Q320.86 96.58 320.31 96.73L320.31 96.73L319.30 97.28Q318.28 97.20 317.77 97.20Q317.27 97.20 316.64 97.20L316.64 97.20Q314.30 97.20 311.21 97.48Q308.13 97.75 304.92 98.26Q301.72 98.77 298.67 99.51Q295.63 100.25 293.36 101.11L293.36 101.11Q292.73 101.58 291.72 101.97L291.72 101.97Q291.48 102.05 291.02 102.36L291.02 102.36Q291.09 102.98 291.02 103.57Q290.94 104.16 290.78 104.70L290.78 104.70Q290.70 105.09 290.66 105.52Q290.63 105.95 290.55 106.42L290.55 106.42Q288.91 108.38 288.98 111.03L288.98 111.03L288.59 111.81Q288.28 112.13 288.09 112.71Q287.89 113.30 288.05 113.92L288.05 113.92L288.36 114.86Q289.92 114.70 291.45 114.51Q292.97 114.31 294.69 114.08L294.69 114.08Q296.88 113.69 299.10 113.41Q301.33 113.14 303.75 113.14L303.75 113.14L306.80 113.14L306.09 113.84L306.95 113.92L306.48 115.17Q307.03 115.41 307.30 115.52Q307.58 115.64 307.81 115.80L307.81 115.80L308.36 116.58Q308.75 116.81 309.06 117.32Q309.38 117.83 309.45 118.69L309.45 118.69L309.22 119.47L305.55 124.16L305.08 124.78L304.30 124.55Q302.81 124.47 301.48 124.86L301.48 124.86Q300.86 125.02 300.16 125.21Q299.45 125.41 298.75 125.41L298.75 125.41Q296.88 125.72 295.63 125.91Q294.38 126.11 293.13 126.27L293.13 126.27Q291.41 126.58 289.80 126.85Q288.20 127.13 286.80 127.67L286.80 127.67Q285.94 127.75 285.78 127.71Q285.63 127.67 285.47 127.67L285.47 127.67Q284.69 127.67 283.91 127.91Q283.13 128.14 282.42 128.38L282.42 128.38Q281.95 128.77 281.80 129.20Q281.64 129.63 281.48 130.09L281.48 130.09Q281.33 130.64 281.05 131.15Q280.78 131.66 280.39 132.20L280.39 132.20L280.47 133.61Q279.77 133.77 279.77 133.80Q279.77 133.84 279.69 133.84L279.69 133.84Q279.69 134.47 279.49 135.02Q279.30 135.56 279.14 136.03L279.14 136.03Q278.98 136.34 278.91 136.58Q278.83 136.81 278.83 137.05L278.83 137.05Q279.61 138.45 279.22 140.25L279.22 140.25Q278.91 141.73 278.05 142.87Q277.19 144 276.02 144.63L276.02 144.63Q274.77 144.78 274.18 144.55Q273.59 144.31 272.97 144.08L272.97 144.08Q272.58 143.92 272.19 143.80Q271.80 143.69 271.41 143.61L271.41 143.61L270.47 142.83Q270.23 142.36 269.92 141.93Q269.61 141.50 269.30 141.03L269.30 141.03Q268.91 140.48 268.52 139.94Q268.13 139.39 267.81 138.69L267.81 138.69Q267.27 135.95 267.62 134.12Q267.97 132.28 268.59 130.48L268.59 130.48Q268.75 129.86 268.91 129.31Q269.06 128.77 269.22 128.14ZM352.50 137.13L352.34 137.44Q351.88 138.77 350.98 140.13Q350.08 141.50 348.87 142.55Q347.66 143.61 346.17 144.31Q344.69 145.02 343.05 145.09L343.05 145.09Q342.03 144.86 341.68 144.59Q341.33 144.31 340.94 144.08L340.94 144.08Q340.70 143.92 340.51 143.80Q340.31 143.69 340.16 143.61L340.16 143.61L339.22 143.22L339.53 142.20Q339.69 141.58 339.45 141.23Q339.22 140.88 338.52 140.25L338.52 140.25Q338.28 140.02 338.05 139.78Q337.81 139.55 337.66 139.31L337.66 139.31L336.33 137.83L338.44 137.28Q340.39 136.73 341.05 135.88Q341.72 135.02 341.56 132.98L341.56 132.98Q340 132.67 338.95 132.91Q337.89 133.14 336.80 133.45L336.80 133.45Q335.39 133.84 333.95 134.12Q332.50 134.39 330.78 134.39L330.78 134.39Q330.16 134.39 329.61 134.35Q329.06 134.31 328.44 134.23L328.44 134.23L327.66 134.08Q327.50 133.22 327.34 133.10Q327.19 132.98 327.03 132.83L327.03 132.83Q326.64 132.44 326.21 131.77Q325.78 131.11 326.02 130.09L326.02 130.09Q325.63 129.39 325.55 128.69L325.55 128.69Q325.08 129.63 324.84 130.64L324.84 130.64L324.53 131.42L323.75 131.58Q323.59 131.66 323.52 131.93Q323.44 132.20 323.44 132.36L323.44 132.36L323.05 133.69Q322.89 133.84 322.73 133.96Q322.58 134.08 322.42 134.23L322.42 134.23Q322.27 134.94 322.03 135.64Q321.80 136.34 321.56 136.97L321.56 136.97Q321.17 137.98 320.90 138.96Q320.63 139.94 320.70 140.88L320.70 140.88L320.39 141.73Q320 142.20 319.53 142.48Q319.06 142.75 318.59 142.98L318.59 142.98Q318.44 143.14 318.16 143.26Q317.89 143.38 317.73 143.45L317.73 143.45L317.50 144.31L316.56 144.47Q315.70 144.63 315.35 144.70Q315 144.78 314.53 144.78L314.53 144.78L313.75 144.70Q312.89 144 312.42 143.57Q311.95 143.14 311.33 142.75L311.33 142.75Q310.63 141.81 310.55 141.34Q310.47 140.88 310.39 140.48L310.39 140.48Q310.23 140.02 310.20 139.70Q310.16 139.39 310 139.23L310 139.23L308.98 138.30L309.84 137.59L309.92 136.27Q311.48 132.28 313.24 128.61Q315 124.94 316.88 121.11L316.88 121.11Q317.50 119.86 318.09 118.61Q318.67 117.36 319.30 116.11L319.30 116.11Q319.22 115.88 319.22 115.56Q319.22 115.25 319.38 114.86L319.38 114.86Q320.23 113.53 320.78 112.48Q321.33 111.42 321.88 110.33L321.88 110.33Q322.50 109 323.16 107.75Q323.83 106.50 324.84 105.17L324.84 105.17L326.09 104.63Q326.33 104.55 326.64 104.43Q326.95 104.31 327.34 104.31L327.34 104.31L328.52 104.47Q330.70 103.45 332.34 101.62Q333.98 99.78 335.70 97.20L335.70 97.20L336.48 96.11L337.50 96.73Q337.89 96.97 338.59 97.16Q339.30 97.36 340.08 97.59L340.08 97.59Q341.48 97.91 342.73 98.30Q343.98 98.69 344.77 99.47L344.77 99.47Q345.23 100.72 345.31 101.34Q345.39 101.97 345.55 102.59L345.55 102.59Q345.78 103.92 345.98 105.25Q346.17 106.58 346.25 108.22L346.25 108.22Q346.64 109.55 346.91 110.84Q347.19 112.13 347.42 113.45L347.42 113.45Q347.81 115.33 348.20 117.09Q348.59 118.84 349.22 120.41L349.22 120.41Q349.84 120.41 350 120.48L350 120.48Q350.39 120.33 350.82 120.25Q351.25 120.17 351.80 120.09L351.80 120.09L352.66 120.02L352.97 120.80Q353.05 121.19 353.75 121.58L353.75 121.58Q354.77 121.66 355.23 122.01Q355.70 122.36 356.09 122.75L356.09 122.75Q356.41 123.06 356.72 123.22L356.72 123.22L357.89 123.69L357.27 124.86Q356.48 126.27 355.04 127.55Q353.59 128.84 351.80 129.70L351.80 129.70Q351.88 130.17 351.91 130.60Q351.95 131.03 352.11 131.50L352.11 131.50Q352.34 132.83 352.50 134.23Q352.66 135.64 352.50 137.13L352.50 137.13ZM329.77 123.92L329.77 123.92Q332.11 123.77 334.02 123.57Q335.94 123.38 338.28 122.91L338.28 122.91Q337.73 120.56 337.11 118.02Q336.48 115.48 335.78 112.98L335.78 112.98L335.31 113.77Q333.75 115.41 332.30 117.44Q330.86 119.47 329.84 121.27L329.84 121.27Q329.38 121.97 328.91 122.67Q328.44 123.38 328.05 124.08L328.05 124.08Q328.52 124 328.95 124Q329.38 124 329.77 123.92ZM370.08 135.88L370.08 135.88Q369.22 139 368.55 140.60Q367.89 142.20 366.56 143.92L366.56 143.92Q365.55 143.77 365.16 144.16Q364.77 144.55 364.30 144.86L364.30 144.86Q363.59 145.02 363.28 144.86Q362.97 144.70 362.73 144.51Q362.50 144.31 362.15 144.12Q361.80 143.92 361.09 143.92L361.09 143.92Q360.94 143.30 360.74 142.75Q360.55 142.20 359.69 142.36L359.69 142.36Q359.84 141.73 359.77 141.30Q359.69 140.88 359.57 140.52Q359.45 140.17 359.38 139.82Q359.30 139.47 359.45 138.92L359.45 138.92Q359.06 138.92 358.83 138.38Q358.59 137.83 358.28 137.28L358.28 137.28Q358.52 135.88 358.75 134.63Q358.98 133.38 359.34 132.28Q359.69 131.19 359.92 130.09Q360.16 129 359.69 127.83L359.69 127.83Q360 128.06 360.16 127.71Q360.31 127.36 360.39 126.77Q360.47 126.19 360.47 125.60Q360.47 125.02 360.39 124.63L360.39 124.63Q361.17 122.59 361.68 120.45Q362.19 118.30 362.62 116.19Q363.05 114.08 363.52 112.05Q363.98 110.02 364.77 108.30L364.77 108.30Q365.63 108.14 366.68 108.49Q367.73 108.84 367.97 109.39L367.97 109.39Q370 107.83 371.56 105.60Q373.13 103.38 374.77 101.27Q376.41 99.16 378.40 97.52Q380.39 95.88 383.44 95.56L383.44 95.56Q385 96.73 386.91 97.95Q388.83 99.16 390.08 101.11L390.08 101.11Q390.70 101.42 391.13 101.77Q391.56 102.13 392.19 102.52L392.19 102.52L392.19 103.45Q393.13 104.31 393.71 105.45Q394.30 106.58 394.77 107.87Q395.23 109.16 395.70 110.45Q396.17 111.73 396.80 112.91L396.80 112.91Q396.64 113.30 396.64 113.57Q396.64 113.84 396.76 114.16Q396.88 114.47 396.95 114.78Q397.03 115.09 396.95 115.64L396.95 115.64Q396.72 119.08 394.73 121.19Q392.73 123.30 389.92 124.66Q387.11 126.03 383.91 126.97Q380.70 127.91 378.13 129L378.13 129Q378.13 129.31 378.40 129.31Q378.67 129.31 378.59 129.70L378.59 129.70Q380.47 130.88 381.56 131.58Q382.66 132.28 383.63 132.75Q384.61 133.22 385.74 133.57Q386.88 133.92 388.91 134.39L388.91 134.39Q390.94 134.86 392.07 135.13Q393.20 135.41 394.14 135.60Q395.08 135.80 396.05 135.91Q397.03 136.03 398.83 136.19L398.83 136.19Q399.53 136.89 400.04 137.87Q400.55 138.84 400.70 139.82Q400.86 140.80 400.78 141.70Q400.70 142.59 400.23 143.14L400.23 143.14Q400.31 143.38 400.59 143.34Q400.86 143.30 401.17 143.38L401.17 143.38Q400.70 143.69 400.39 144.16Q400.08 144.63 399.77 145.09Q399.45 145.56 399.06 145.91Q398.67 146.27 397.97 146.34L397.97 146.34Q395.55 147.28 391.88 146.46Q388.20 145.64 382.58 143.45L382.58 143.45Q379.77 142.36 378.01 141.54Q376.25 140.72 374.96 139.90Q373.67 139.08 372.62 138.14Q371.56 137.20 370.08 135.88ZM381.25 109.08L381.25 109.08Q380.39 110.33 379.34 111.34Q378.28 112.36 377.30 113.41Q376.33 114.47 375.55 115.76Q374.77 117.05 374.45 118.77L374.45 118.77Q377.19 118.45 380.16 117.24Q383.13 116.03 385.78 114.94L385.78 114.94Q385.47 112.52 384.10 111.03Q382.73 109.55 381.25 109.08ZM454.84 142.59L454.84 142.59Q454.06 142.98 453.40 143.30Q452.73 143.61 451.88 143.61L451.88 143.61Q448.83 141.34 448.71 135.72Q448.59 130.09 451.09 121.42L451.09 121.42Q451.48 121.19 451.48 120.48L451.48 120.48L450.78 119.70Q450.47 119.70 450.20 119.78Q449.92 119.86 449.77 120.33L449.77 120.33Q447.73 121.81 445.31 123.41Q442.89 125.02 440.27 126.38Q437.66 127.75 434.96 128.61Q432.27 129.47 429.69 129.47L429.69 129.47Q423.13 129.47 419.84 122.83L419.84 122.83L419.22 121.66L418.59 122.67Q418.36 122.98 417.89 123.96Q417.42 124.94 416.95 126.19Q416.48 127.44 416.13 128.73Q415.78 130.02 415.86 130.95L415.86 130.95Q415.16 131.66 414.38 132.59Q413.59 133.53 413.20 134.70L413.20 134.70Q413.05 135.33 413.36 135.88L413.36 135.88Q413.20 136.58 412.66 136.97L412.66 136.97Q412.34 137.36 411.99 137.71Q411.64 138.06 411.41 138.45L411.41 138.45Q411.25 138.84 411.21 139.23Q411.17 139.63 411.09 140.02L411.09 140.02Q411.09 140.56 410.94 141.03L410.94 141.03Q409.61 143.77 408.83 144.59Q408.05 145.41 406.72 145.41L406.72 145.41Q406.09 145.41 404.69 145.17L404.69 145.17Q403.67 144.08 402.85 142.16Q402.03 140.25 401.60 138.06Q401.17 135.88 401.21 133.65Q401.25 131.42 401.95 129.78L401.95 129.78Q401.95 129.70 402.58 128.22Q403.20 126.73 404.18 124.39Q405.16 122.05 406.41 119.20Q407.66 116.34 408.91 113.65Q410.16 110.95 411.29 108.69Q412.42 106.42 413.20 105.25L413.20 105.25Q413.83 104.31 414.34 103.49Q414.84 102.67 415.31 101.89L415.31 101.89Q416.72 99.47 418.01 97.87Q419.30 96.27 421.80 95.33L421.80 95.33Q423.52 96.03 424.30 96.97L424.30 96.97L424.45 97.83Q424.77 98.61 425.39 98.61L425.39 98.61Q426.25 98.84 426.84 99.04Q427.42 99.23 428.13 99.39L428.13 99.39Q428.67 100.02 429.14 100.88L429.14 100.88Q429.77 101.81 430.35 102.71Q430.94 103.61 431.29 104.51Q431.64 105.41 431.68 106.34Q431.72 107.28 431.33 108.30L431.33 108.30L431.41 109.08Q431.80 109.78 431.56 111.03L431.56 111.03Q431.48 111.58 431.48 112.16Q431.48 112.75 431.64 113.45L431.64 113.45Q433.05 114.55 434.14 114.55L434.14 114.55Q435.39 114.55 436.45 113.96Q437.50 113.38 438.44 112.75L438.44 112.75Q439.06 112.28 439.69 111.93Q440.31 111.58 440.94 111.50L440.94 111.50Q442.34 110.17 443.48 109.16Q444.61 108.14 445.86 107.13L445.86 107.13Q448.20 105.25 450.39 103.06Q452.58 100.88 453.91 97.59L453.91 97.59Q454.69 97.13 455.55 97.13L455.55 97.13Q456.41 97.13 457.34 97.52Q458.28 97.91 459.14 98.30L459.14 98.30Q459.38 98.45 459.57 98.53Q459.77 98.61 459.92 98.69L459.92 98.69Q459.92 99.47 460.55 100.02L460.55 100.02Q460.86 100.25 460.94 100.33Q461.02 100.41 461.17 100.48L461.17 100.48Q462.34 101.11 462.66 101.73L462.66 101.73Q463.20 103.53 464.61 104.47L464.61 104.47Q464.45 105.25 464.65 105.91Q464.84 106.58 465.16 107.28L465.16 107.28Q465.23 107.52 465.31 107.75Q465.39 107.98 465.55 108.30L465.55 108.30L464.06 108.14L464.30 109.63Q464.45 110.72 464.10 112.05Q463.75 113.38 463.28 114.16L463.28 114.16Q463.36 116.19 463.40 117.32Q463.44 118.45 463.28 119.43Q463.13 120.41 462.85 121.27Q462.58 122.13 462.11 123.14L462.11 123.14Q462.42 128.14 460.98 132.24Q459.53 136.34 457.97 139.94L457.97 139.94Q457.81 140.33 457.62 140.72Q457.42 141.11 457.27 141.50L457.27 141.50Q456.56 141.73 456.02 142.01Q455.47 142.28 454.84 142.59ZM482.50 138.53L482.50 138.53Q482.89 140.88 482.23 142.20Q481.56 143.53 480.35 144.20Q479.14 144.86 477.58 144.94Q476.02 145.02 474.61 144.78L474.61 144.78Q473.83 143.69 473.20 142.05Q472.58 140.41 472.03 138.65Q471.48 136.89 471.05 135.17Q470.63 133.45 470.31 132.13L470.31 132.13Q470.70 131.19 470.82 129.98Q470.94 128.77 470.98 127.52Q471.02 126.27 471.05 124.98Q471.09 123.69 471.25 122.52L471.25 122.52Q471.80 119.23 472.85 116.27Q473.91 113.30 474.53 110.09L474.53 110.09Q474.69 109.39 474.41 108.77Q474.14 108.14 474.30 107.59L474.30 107.59Q474.38 107.28 474.77 107.16Q475.16 107.05 475.23 106.66L475.23 106.66Q475.47 105.80 475.35 105.25Q475.23 104.70 475.63 103.92L475.63 103.92Q476.02 103.30 476.60 102.09Q477.19 100.88 477.03 99.55L477.03 99.55Q477.73 99.08 478.36 98.45Q478.98 97.83 479.65 97.32Q480.31 96.81 481.13 96.42Q481.95 96.03 483.13 96.03L483.13 96.03Q483.75 96.81 483.95 97.75Q484.14 98.69 484.34 99.63Q484.53 100.56 484.92 101.38Q485.31 102.20 486.25 102.67L486.25 102.67Q486.25 103.30 486.25 104.23Q486.25 105.17 486.33 106.07Q486.41 106.97 486.68 107.71Q486.95 108.45 487.58 108.69L487.58 108.69Q486.17 112.44 484.96 116.11Q483.75 119.78 482.97 123.49Q482.19 127.20 481.99 130.95Q481.80 134.70 482.50 138.53ZM507.58 129.78L507.58 129.78Q506.88 129.94 506.56 130.60Q506.25 131.27 505.98 131.97Q505.70 132.67 505.43 133.26Q505.16 133.84 504.61 133.84L504.61 133.84Q504.53 134.47 504.18 134.94Q503.83 135.41 503.52 135.91Q503.20 136.42 503.05 137.01Q502.89 137.59 503.20 138.38L503.20 138.38Q502.58 138.84 502.42 139.70Q502.27 140.56 502.07 141.34Q501.88 142.13 501.41 142.67Q500.94 143.22 499.69 143.14L499.69 143.14Q499.45 143.45 499.61 143.53Q499.77 143.61 499.84 144.08L499.84 144.08Q498.98 143.92 498.55 144.20Q498.13 144.47 497.50 144.55L497.50 144.55Q496.02 144.08 495.04 142.91Q494.06 141.73 493.32 140.29Q492.58 138.84 491.99 137.36Q491.41 135.88 490.86 134.78L490.86 134.78Q491.09 133.92 490.94 133.10Q490.78 132.28 490.39 131.73L490.39 131.73Q494.22 123.61 498.75 114.39Q503.28 105.17 507.34 96.19L507.34 96.19Q509.14 96.89 510.90 97.79Q512.66 98.69 514.10 99.86Q515.55 101.03 516.56 102.55Q517.58 104.08 517.89 105.95L517.89 105.95Q517.73 106.42 517.54 106.30Q517.34 106.19 517.19 106.42L517.19 106.42Q517.50 106.81 517.54 106.97Q517.58 107.13 517.54 107.28Q517.50 107.44 517.50 107.71Q517.50 107.98 517.73 108.45L517.73 108.45Q517.42 108.38 517.30 108.53Q517.19 108.69 516.80 108.53L516.80 108.53Q517.11 109.39 516.99 109.94Q516.88 110.48 516.64 110.91Q516.41 111.34 516.25 111.85Q516.09 112.36 516.33 113.14L516.33 113.14Q516.09 113.14 515.98 113.26Q515.86 113.38 515.78 113.49Q515.70 113.61 515.59 113.73Q515.47 113.84 515.23 113.77L515.23 113.77Q515.47 115.48 515.39 117.20Q515.31 118.92 515.27 120.68Q515.23 122.44 515.31 124.35Q515.39 126.27 515.86 128.30L515.86 128.30Q518.67 126.66 520.35 124.08Q522.03 121.50 523.09 118.30Q524.14 115.09 524.69 111.42Q525.23 107.75 525.86 103.92L525.86 103.92Q526.56 103.22 526.95 102.20Q527.34 101.19 527.66 100.05Q527.97 98.92 528.28 97.79Q528.59 96.66 529.06 95.72L529.06 95.72Q530.23 95.88 531.05 96.46Q531.88 97.05 532.58 97.71Q533.28 98.38 534.06 98.96Q534.84 99.55 536.02 99.70L536.02 99.70Q536.95 101.03 537.73 102.28Q538.52 103.53 538.75 104.94L538.75 104.94Q538.36 105.56 538.16 106.34Q537.97 107.13 537.73 107.91Q537.50 108.69 537.11 109.35Q536.72 110.02 536.02 110.48L536.02 110.48Q535.78 112.52 535.43 114.20Q535.08 115.88 534.73 117.52Q534.38 119.16 534.14 120.91Q533.91 122.67 533.98 124.78L533.98 124.78Q533.36 126.58 532.66 128.61Q531.95 130.64 531.56 132.28L531.56 132.28Q530.31 133.30 529.61 134.70Q528.91 136.11 528.13 137.52L528.13 137.52Q527.81 137.83 527.73 137.67Q527.66 137.52 527.19 137.44L527.19 137.44Q527.27 137.75 527.19 137.91Q527.11 138.06 526.99 138.18Q526.88 138.30 526.84 138.53Q526.80 138.77 526.95 139.16L526.95 139.16Q525.86 139.63 525 140.48Q524.14 141.34 523.16 142.05Q522.19 142.75 520.82 142.98Q519.45 143.22 517.27 142.44L517.27 142.44Q514.06 140.09 511.60 137.05Q509.14 134 507.58 129.78ZM592.11 129.94L592.11 129.94Q590.23 133.30 587.19 135.13Q584.14 136.97 580.47 138.18Q576.80 139.39 572.77 140.33Q568.75 141.27 565 142.75L565 142.75Q563.91 142.75 563.09 142.83Q562.27 142.91 561.52 143.02Q560.78 143.14 560.08 143.26Q559.38 143.38 558.52 143.45L558.52 143.45Q558.20 143.38 558.13 143.57Q558.05 143.77 557.89 143.92L557.89 143.92Q556.56 144.16 555.51 144.16Q554.45 144.16 553.75 144.16L553.75 144.16Q552.81 144.16 551.84 144.43Q550.86 144.70 550.08 144.63L550.08 144.63Q544.22 144.31 540.90 140.45Q537.58 136.58 537.19 129.70L537.19 129.70Q537.27 129.31 537.07 129.23Q536.88 129.16 536.72 129L536.72 129Q536.72 128.22 536.91 127.67Q537.11 127.13 536.95 126.27L536.95 126.27Q538.98 121.97 541.56 118.26Q544.14 114.55 547.73 111.73L547.73 111.73Q548.28 111.27 548.67 110.80Q549.06 110.33 549.41 109.86Q549.77 109.39 550.23 109.04Q550.70 108.69 551.41 108.53L551.41 108.53Q553.05 106.66 555.31 105.09Q557.58 103.53 560.08 102.09Q562.58 100.64 565.04 99.20Q567.50 97.75 569.53 95.95L569.53 95.95Q570.39 96.34 570.78 96.19Q571.17 96.03 571.64 96.19L571.64 96.19Q572.19 97.36 573.16 97.83Q574.14 98.30 575.12 98.80Q576.09 99.31 576.95 100.02Q577.81 100.72 578.28 101.89L578.28 101.89Q577.81 101.89 577.85 102.24Q577.89 102.59 578.05 102.95Q578.20 103.30 578.16 103.65Q578.13 104 577.58 104L577.58 104Q577.66 104.39 578.09 104.43Q578.52 104.47 578.52 104.86L578.52 104.86Q578.52 105.25 578.32 105.48Q578.13 105.72 578.28 106.27L578.28 106.27Q576.72 107.28 574.80 108.22Q572.89 109.16 570.82 110.21Q568.75 111.27 566.52 112.48Q564.30 113.69 562.19 115.25L562.19 115.25Q560.08 116.81 557.89 118.73Q555.70 120.64 553.67 122.75Q551.64 124.86 549.84 127.09Q548.05 129.31 546.80 131.50L546.80 131.50Q546.95 131.89 547.15 132.09Q547.34 132.28 547.50 132.67L547.50 132.67Q550 132.83 552.15 132.63Q554.30 132.44 556.48 132.91L556.48 132.91Q556.72 132.75 556.80 132.44Q556.88 132.13 557.19 131.97L557.19 131.97Q561.64 131.50 565.47 130.52Q569.30 129.55 573.28 128.45L573.28 128.45Q572.66 128.22 572.15 128.02Q571.64 127.83 571.17 127.67L571.17 127.67Q570.78 127.28 571.21 127.01Q571.64 126.73 571.95 126.42L571.95 126.42Q570.86 125.80 570.20 124.86Q569.53 123.92 569.38 122.36L569.38 122.36Q569.84 121.97 569.84 121.42Q569.84 120.88 569.38 120.56L569.38 120.56Q569.06 120.48 568.98 120.56Q568.91 120.64 568.87 120.80Q568.83 120.95 568.75 121.07Q568.67 121.19 568.36 121.03L568.36 121.03Q568.44 120.33 568.71 119.86Q568.98 119.39 569.14 118.77L569.14 118.77L574.53 115.17Q575.39 115.80 576.64 116.54Q577.89 117.28 579.26 118.02Q580.63 118.77 582.07 119.51Q583.52 120.25 584.77 120.95L584.77 120.95Q585.86 121.42 586.72 122.20Q587.58 122.98 588.36 123.80Q589.14 124.63 589.96 125.41Q590.78 126.19 591.88 126.73L591.88 126.73Q591.72 127.75 591.95 128.38Q592.19 129 592.11 129.94Z"></path>
            </g>
        </g>
    </g>
    
</svg>